<?xml version="1.0" encoding="utf-8"?>
<!-- Generator: Adobe Illustrator 18.1.1, SVG Export Plug-In . SVG Version: 6.00 Build 0)  -->
<svg version="1.1" baseProfile="basic" id="Layer_1"
	 xmlns="http://www.w3.org/2000/svg" xmlns:xlink="http://www.w3.org/1999/xlink" x="0px" y="0px" viewBox="0 -307.1 2242.5 1563.5"
	 xml:space="preserve">
<path fill="#EDC73F" d="M0-307.1h2242.5v1563.5H0V-307.1z"/>
<g>
	<g opacity="0.5">
		<path fill="#C7491B" d="M1463.9,579.9c-79.5,0-144.3-64.7-144.3-144.3s64.7-144.3,144.3-144.3s144.3,64.7,144.3,144.3
			S1543.5,579.9,1463.9,579.9z M1463.9,292.7c-78.9,0-143,64.1-143,142.9s64.1,143,142.9,143s143-64.1,143-143
			S1542.8,292.7,1463.9,292.7L1463.9,292.7z"/>
		<path fill="#C7491B" d="M1522.4,625.3l-0.2-0.5l-14.1-44.2l0.5-0.2c63.6-20.2,106.3-78.7,106.3-145.6c0-3.3-0.2-6.7-0.5-11v-0.5
			l46.8-3.4v0.5c0.3,4.9,0.5,9.7,0.5,14.5c0,43.1-13.7,84.1-39.3,118.8c-24.8,33.5-60.3,58.8-99.7,71.5L1522.4,625.3L1522.4,625.3z
			 M1509.5,581.1l13.6,42.7c82.5-26.6,137.9-102.5,137.9-189.1c0-4.4-0.2-9.2-0.5-13.8l-44.8,3.3c0.3,3.9,0.3,7.4,0.3,10.5
			C1615.9,502,1573.2,560.7,1509.5,581.1L1509.5,581.1z M1331.3,585.5l-0.3-0.3c-21-18.4-38.4-41.6-50.1-66.9l-0.2-0.5l0.5-0.2
			l42.2-19.2l0.2,0.5c9,19.6,21.9,36.6,38,50.9l0.3,0.3l-0.3,0.3L1331.3,585.5L1331.3,585.5z M1282,518.3
			c11.5,24.8,28.6,47.5,49.3,65.7l29.3-33.8c-16.1-14.1-28.8-31-37.6-50.4L1282,518.3L1282,518.3z M1325.6,366.3l-41.7-21.4l0.2-0.5
			c16.4-32.4,41.6-59.6,72.3-79c31.7-19.9,68.4-30.4,105.8-30.4c31.9,0,63.8,7.7,92,22.5l0.5,0.2l-0.2,0.5l-21.2,41.2l-0.5-0.1
			c-21.9-11.3-45.7-17.1-70.5-17.1c-58,0-110.3,32-136.4,83.8L1325.6,366.3L1325.6,366.3z M1285.2,344.4l39.9,20.4
			c26.3-51.8,78.7-84,137-84c24.8,0,48.6,5.8,70.5,17.1l20.5-39.8c-27.9-14.5-59.5-22.2-91.2-22.2
			C1387.4,236,1319.5,277.6,1285.2,344.4L1285.2,344.4z"/>
		<path fill="#C7491B" d="M1458.2,739.5c-166.9,0-302.7-135.7-302.7-302.7s135.7-302.7,302.7-302.7s302.7,135.7,302.7,302.7
			S1625.2,739.5,1458.2,739.5L1458.2,739.5z M1458.2,136.6c-165.6,0-300.2,134.8-300.2,300.2c0,165.6,134.7,300.2,300.2,300.2
			s300.2-134.7,300.2-300.2S1623.8,136.6,1458.2,136.6L1458.2,136.6z"/>
		<path fill="#C7491B" d="M1458.7,731.9c-8.7,0-17.3-0.3-25.8-1.2l-1-0.2l6.6-68.3l1,0.2c31.2,2.8,61.9-0.8,91.7-10.8l1-0.3
			l22.5,64.7l-1,0.3C1523.3,726.6,1490.9,731.9,1458.7,731.9L1458.7,731.9z M1434,728.9c39.4,3.5,80.4-1.5,118-14.3l-21.2-61
			c-29.4,9.9-59.8,13.5-90.5,10.8L1434,728.9L1434,728.9z M1216.5,600.9l-0.5-0.8c-28.8-44.3-45-95.8-47-148.9
			c-2-54.5,11.3-108.3,38.6-155.6c23.3-40.3,56.4-74.8,95.5-99.8l0.8-0.5l37.1,57.8l-0.8,0.5c-30.2,19.4-54.9,45-73,76.4
			c-42.2,73.1-39.8,162.2,6.4,232.7l0.5,0.8L1216.5,600.9L1216.5,600.9z M1303.2,198.2c-38.6,24.6-71,58.6-94,98.4
			c-54.4,94.3-51.4,209.7,7.7,301.5l54.4-35.2c-46-70.8-48.3-160.4-5.9-233.8c18.1-31.4,42.6-57,72.6-76.4L1303.2,198.2
			L1303.2,198.2z M1743.6,504l-67.2-14.6l0.2-1c20.9-94.6-21.9-190.9-106-239.6c-4.1-2.5-8.5-4.8-14.1-7.4l-0.8-0.5l30.1-62.1
			l0.8,0.5c6.4,3.1,12.7,6.4,18.6,9.9c54.4,31.4,96.3,78.4,121.3,136.1c24.2,55.7,30.4,118.8,17.6,177.8L1743.6,504L1743.6,504z
			 M1678.9,487.9l63.4,13.8c26.3-123.1-29.1-248-138-310.9c-5.6-3.3-11.5-6.4-17.6-9.4l-28.3,58.5c5.1,2.5,9.4,4.8,13.3,7.1
			C1656.4,295.9,1699.3,392.7,1678.9,487.9L1678.9,487.9z"/>
		<path fill="#C7491B" d="M1372.9,850.7l-1.2-0.2c-74.6-15.8-143.6-51.8-199.7-103.7c-57.5-53.4-98.8-121.9-119.1-197.8
			c-17.4-64.7-18.9-133.6-4.3-198.8l0.2-1l96.1,21l-0.2,1.1c-11.2,50.6-10,101.9,3.4,152.3c31.5,117.7,125,206.2,243.8,230.9
			l1.2,0.2L1372.9,850.7L1372.9,850.7z M1050.9,351.7c-14.3,64.6-12.7,132.6,4.4,196.7c40.7,151.8,161.7,266.7,316,299.7l19.7-92
			c-119.3-25.3-212.8-114.2-244.5-232.3c-13.5-50.4-14.8-101.7-3.8-152.3L1050.9,351.7L1050.9,351.7z M1725.1,763.5l-62.6-75.9
			l0.8-0.7c34.7-28.9,62.4-64.1,82.5-104.7l0.5-1l1,0.5l87.4,42.2l-0.5,1c-25.9,52.7-63.3,100.4-108.3,137.8L1725.1,763.5
			L1725.1,763.5z M1665.6,687.9l59.8,72.5c44.1-37,80.7-83.8,106.3-135.4l-84.5-40.8C1727.3,624.3,1699.7,659.1,1665.6,687.9
			L1665.6,687.9z M1728.5,268l-0.7-1c-75.4-117.8-217.1-172.7-352.8-136.2c-6.6,1.8-13.6,3.9-22,6.9l-1,0.3l-32.5-93.3l1-0.3
			c9.7-3.3,19.4-6.4,28.9-8.9c87.4-23.3,178-18.1,262.1,15.1c81.3,32.2,152,90.2,199,163.2l0.7,1L1728.5,268L1728.5,268z
			 M1459,117.5c107.6,0,209.7,53.9,270,147.4l79.2-50.9C1709.4,61.3,1525.4-9.5,1350.1,37.5c-9,2.5-18.4,5.3-27.8,8.5l31.1,89.2
			c8.1-2.8,14.6-4.8,21-6.6C1402.7,121.1,1431.1,117.5,1459,117.5L1459,117.5z"/>
		<g>
			<path fill="#C7491B" d="M1114.5,487.6h-41.3c-4.6,0-8.5-3.9-8.5-8.5v-26.5c0-4.6,3.9-8.5,8.5-8.5h41.3c4.6,0,8.5,3.9,8.5,8.5
				v26.5C1123,483.8,1119.3,487.6,1114.5,487.6L1114.5,487.6z M1073.2,445.3c-4.2,0-7.4,3.3-7.4,7.4v26.5c0,4.2,3.3,7.4,7.4,7.4
				h41.3c4.2,0,7.4-3.3,7.4-7.4v-26.5c0-4.2-3.3-7.4-7.4-7.4L1073.2,445.3L1073.2,445.3z M1112.7,473.8h-32.8c-2.2,0-4-1.8-4-4
				c0-2.2,1.8-4,4-4h32.8c2.2,0,4,1.8,4,4C1116.8,472,1115,473.8,1112.7,473.8L1112.7,473.8z M1079.9,466.8c-1.6,0-3,1.4-3,3
				c0,1.6,1.3,3,3,3h32.8c1.6,0,3-1.3,3-3s-1.3-3-3-3L1079.9,466.8L1079.9,466.8z M1112.8,459.5h-37.9c-2.2,0-4-1.8-4-4
				c0-2.2,1.8-4,4-4h37.9c2.2,0,4,1.8,4,4C1116.8,457.8,1115,459.5,1112.8,459.5z M1074.9,452.6c-1.6,0-3,1.3-3,3s1.3,3,3,3h37.9
				c1.6,0,3-1.3,3-3s-1.3-3-3-3L1074.9,452.6L1074.9,452.6z"/>
			<path fill="#C7491B" d="M1123.8,506.2l-31.5-20h22.4l0.1,0.3L1123.8,506.2L1123.8,506.2z M1095.7,487.2l25.7,16.2l-7.4-16.2
				H1095.7L1095.7,487.2z"/>
		</g>
		<g>
			<path fill="#C7491B" d="M1415.7,221.8h-10.4l-0.9-5.6c-1.2-0.5-2.3-0.9-3.3-1.4l-4.6,3.1l-7.3-7.3l3.1-4.6
				c-0.7-1.2-1.2-2.2-1.5-3.4l-5.5-0.9v-10.1l5.3-0.6c0.1-0.2,0.2-0.5,0.2-0.7c0.3-0.9,0.6-1.7,1.1-2.6l-3.1-4.6l7.3-7.3l4.6,3.4
				c1.1-0.7,2.2-1.1,3.3-1.5l0.9-5.5h10.1l0.6,5.5c1.1,0.3,2.2,0.8,3.3,1.4l4.6-3.4l7.3,7.3l-3.4,4.6c0.7,1.3,1.1,2.3,1.4,3.3
				l5.5,0.9V202l-4.6,0.9c-0.3,1.1-0.8,2.2-1.4,3.3l3.4,4.6l-7.3,7.3l-4.6-3.4c-1.1,0.7-2.2,1.1-3.3,1.5L1415.7,221.8L1415.7,221.8z
				 M1406.7,220h7.4l0.9-5.2l0.6-0.1c1.4-0.3,2.5-0.8,3.9-1.7l0.5-0.3l4.3,3.2l5.2-5.2l-3.2-4.3l0.3-0.5c0.8-1.3,1.4-2.7,1.7-3.9
				l0.1-0.5l4.3-0.9v-7.2l-5.2-0.9l-0.1-0.6c-0.3-1.1-0.8-2.2-1.7-3.9l-0.2-0.5l0.3-0.5l2.8-3.8l-5.2-5.2l-4.3,3.2l-0.5-0.3
				c-1.3-0.8-2.7-1.4-3.9-1.7l-0.6-0.1l-0.6-5.2h-7.1l-0.9,5.2l-0.6,0.1c-1.4,0.3-2.5,0.8-3.9,1.7l-0.5,0.3l-4.3-3.2l-5.2,5.2
				l2.9,4.3l-0.3,0.5c-0.6,1-0.9,1.8-1.3,2.8c-0.1,0.4-0.3,0.8-0.5,1.2l-0.2,0.5l-4.8,0.6v7.1l5.2,0.9l0.1,0.6
				c0.3,1.4,0.8,2.5,1.7,3.9l0.3,0.5l-2.9,4.3l5.2,5.2l4.3-2.9l0.5,0.2c1.1,0.6,2.6,1.2,4,1.7l0.5,0.2l0.1,0.5L1406.7,220
				L1406.7,220z M1409.9,206.6c-5.5,0-9.8-4.3-9.8-9.8s4.3-9.8,9.8-9.8s9.8,4.3,9.8,9.8C1419.7,202.4,1415.4,206.6,1409.9,206.6z
				 M1409.9,188.8c-4.6,0-8,3.5-8,8c0,4.6,3.5,8,8,8s8-3.5,8-8S1414.4,188.8,1409.9,188.8z"/>
		</g>
		<g>
			<path fill="#C7491B" d="M1267.1,163.8h-7.8c-1,0-1.7-0.8-1.7-1.6v-1.9c0-1,0.8-1.7,1.7-1.7h7.8c1,0,1.6,0.8,1.6,1.6v1.9
				C1268.7,163.1,1268,163.8,1267.1,163.8L1267.1,163.8z M1259.3,159.6c-0.3,0-0.6,0.3-0.6,0.6v1.9c0,0.3,0.3,0.6,0.6,0.6h7.8
				c0.3,0,0.5-0.3,0.5-0.6v-1.9c0-0.3-0.3-0.6-0.6-0.6L1259.3,159.6L1259.3,159.6z"/>
		</g>
		<g>
			<g opacity="0.27">
				<path fill="#C7491B" d="M1505.5,1122.6c-1.8,0-3.3-1.4-3.3-3.2c-0.1-1.9,1.3-3.4,3.2-3.6l6.8-0.4c1.9-0.1,3.4,1.3,3.6,3.2
					c0.1,1.9-1.3,3.5-3.2,3.6l-6.8,0.4L1505.5,1122.6L1505.5,1122.6z M1424.4,1122.6h-0.3c-2.3-0.1-4.5-0.3-6.8-0.5
					c-1.9-0.1-3.3-1.8-3.2-3.6c0.1-1.9,1.8-3.2,3.6-3.2l6.8,0.4c1.9,0.1,3.3,1.7,3.2,3.6C1427.6,1121.2,1426.1,1122.6,1424.4,1122.6
					L1424.4,1122.6z M1592.6,1111.5c-1.5,0-2.9-1.1-3.3-2.7c-0.4-1.8,0.9-3.6,2.7-4c2.2-0.4,4.3-0.9,6.6-1.3c1.8-0.4,3.6,0.8,4,2.7
					c0.4,1.8-0.8,3.6-2.7,4c-2.2,0.5-4.5,0.9-6.6,1.4C1593.1,1111.4,1592.8,1111.5,1592.6,1111.5L1592.6,1111.5z M1337.3,1111.4
					h-0.6c-2.2-0.4-4.5-0.9-6.6-1.4c-1.8-0.4-3.1-2.2-2.7-4c0.4-1.8,2.2-3.1,4-2.7c2.2,0.5,4.3,0.9,6.6,1.3c1.8,0.4,3.1,2.2,2.7,4
					C1340.2,1110.4,1338.8,1111.4,1337.3,1111.4L1337.3,1111.4z M1677.5,1088.8c-1.4,0-2.7-0.9-3.2-2.3c-0.6-1.8,0.4-3.7,2.2-4.3
					c2.2-0.8,4.2-1.4,6.4-2.2c1.8-0.6,3.7,0.3,4.3,2c0.6,1.8-0.3,3.7-2,4.3c-2.2,0.8-4.3,1.5-6.4,2.2
					C1678.2,1088.6,1677.9,1088.8,1677.5,1088.8L1677.5,1088.8z M1252.3,1088.8c-0.4,0-0.8,0-1.2-0.1l-6.5-2.3
					c-1.8-0.6-2.7-2.6-2-4.3c0.6-1.8,2.6-2.7,4.3-2c2.2,0.8,4.2,1.5,6.4,2.2c1.8,0.6,2.7,2.6,2.2,4.3
					C1255,1087.9,1253.7,1088.8,1252.3,1088.8L1252.3,1088.8z M1758.6,1054.9c-1.3,0-2.4-0.6-3.1-1.9c-0.9-1.7-0.1-3.7,1.5-4.6
					c2-1,4-2,6-3.1c1.7-0.9,3.7-0.3,4.6,1.5c0.9,1.7,0.3,3.7-1.5,4.6c-2.1,1-4.1,2-6,3.1C1759.6,1054.8,1759.1,1055,1758.6,1054.9
					L1758.6,1054.9z M1171.1,1054.8c-0.5,0-1-0.1-1.5-0.4l-6.1-3.1c-1.7-0.9-2.3-2.9-1.4-4.6s2.9-2.3,4.6-1.5c2,1,3.9,2.1,6,3.1
					c1.7,0.9,2.3,2.8,1.5,4.6C1173.5,1054.2,1172.4,1054.8,1171.1,1054.8L1171.1,1054.8z M1834.3,1010.6c-1,0-2.2-0.5-2.8-1.5
					c-1-1.5-0.7-3.7,0.9-4.7c1.9-1.3,3.7-2.5,5.5-3.8c1.5-1,3.7-0.6,4.7,0.9c1,1.5,0.6,3.7-0.9,4.7c-1.9,1.3-3.7,2.6-5.6,3.8
					C1835.6,1010.4,1835,1010.6,1834.3,1010.6L1834.3,1010.6z M1095.2,1010.4c-0.6,0-1.3-0.1-1.9-0.6c-1.9-1.3-3.7-2.6-5.6-3.8
					c-1.5-1-1.9-3.2-0.9-4.7c1-1.5,3.2-1.9,4.7-0.9c1.8,1.3,3.7,2.6,5.5,3.8c1.5,1,1.9,3.2,0.9,4.7
					C1097.4,1009.8,1096.4,1010.3,1095.2,1010.4L1095.2,1010.4z M1903.5,956.5c-0.9,0-1.9-0.4-2.6-1.2c-1.3-1.4-1.2-3.6,0.3-4.7
					c1.7-1.5,3.3-3,5-4.5c1.4-1.3,3.6-1.2,4.7,0.3c1.3,1.4,1.2,3.6-0.3,4.7l-5,4.6C1905.2,956.2,1904.4,956.5,1903.5,956.5
					L1903.5,956.5z M1026,956.3c-0.8,0-1.7-0.3-2.3-0.9c-1.7-1.5-3.3-3.1-5.1-4.6c-1.4-1.3-1.5-3.4-0.3-4.7c1.3-1.4,3.5-1.5,4.7-0.3
					c1.6,1.5,3.3,3.1,5,4.5c1.4,1.3,1.5,3.3,0.3,4.7C1027.9,956,1026.9,956.3,1026,956.3L1026,956.3z M1965.1,893.8
					c-0.8,0-1.5-0.3-2.2-0.8c-1.4-1.3-1.5-3.3-0.4-4.7l4.3-5.1c1.1-1.4,3.3-1.7,4.7-0.4c1.4,1.2,1.7,3.3,0.4,4.7
					c-1.4,1.8-2.9,3.4-4.3,5.2C1967,893.4,1966,893.7,1965.1,893.8L1965.1,893.8z M964.6,893.5c-0.9,0-1.9-0.4-2.6-1.2
					c-1.5-1.7-2.9-3.5-4.3-5.2c-1.2-1.4-1-3.6,0.4-4.7c1.4-1.2,3.6-1,4.7,0.4c1.4,1.7,3,3.5,4.3,5.1c1.3,1.4,1,3.6-0.4,4.7
					C966.1,893.2,965.4,893.5,964.6,893.5L964.6,893.5z M2017.7,823.4c-0.6,0-1.3-0.1-1.8-0.5c-1.5-1-2-3.1-1-4.7
					c1.3-1.9,2.4-3.8,3.7-5.6c1-1.5,3.1-2,4.7-1c1.5,1,2.1,3.1,1,4.7c-1.3,1.9-2.4,3.8-3.7,5.8
					C2019.9,822.9,2018.8,823.4,2017.7,823.4L2017.7,823.4z M912,823.1c-1.2,0-2.2-0.5-2.8-1.5c-1.3-1.9-2.4-3.8-3.7-5.8
					c-1-1.5-0.5-3.7,1-4.7c1.5-1,3.7-0.5,4.7,1c1.2,1.9,2.4,3.8,3.6,5.6c1,1.5,0.5,3.7-1,4.7C913.3,823,912.6,823.1,912,823.1
					L912,823.1z M2060.6,746.6c-0.5,0-1-0.1-1.4-0.4c-1.7-0.8-2.4-2.8-1.7-4.5c1-2,1.9-4.1,2.8-6.1c0.8-1.7,2.8-2.4,4.5-1.7
					c1.7,0.8,2.4,2.8,1.7,4.5c-0.9,2-1.9,4.1-2.9,6.1C2063.1,746,2061.9,746.6,2060.6,746.6L2060.6,746.6z M869.2,746.5
					c-1.3,0-2.4-0.8-3.1-1.9c-1-2-1.9-4.1-2.8-6.1c-0.8-1.7,0-3.7,1.7-4.5c1.7-0.8,3.7,0,4.5,1.7c0.9,2,1.9,4.1,2.8,6.1
					c0.8,1.7,0.1,3.7-1.7,4.5C870.2,746.4,869.7,746.5,869.2,746.5L869.2,746.5z M2092.8,664.9c-0.4,0-0.6,0-1-0.1
					c-1.8-0.5-2.8-2.4-2.2-4.2c0.6-2.2,1.4-4.3,2-6.4c0.5-1.8,2.4-2.8,4.2-2.3c1.8,0.5,2.8,2.4,2.3,4.2c-0.6,2.2-1.4,4.3-2,6.5
					C2095.6,664,2094.2,664.9,2092.8,664.9L2092.8,664.9z M837,664.8c-1.4,0-2.8-0.9-3.2-2.3c-0.6-2.2-1.4-4.3-2-6.5
					c-0.5-1.8,0.5-3.7,2.3-4.2c1.8-0.5,3.7,0.5,4.2,2.3c0.7,2.2,1.3,4.3,2,6.4c0.5,1.8-0.4,3.7-2.2,4.2
					C837.8,664.6,837.4,664.8,837,664.8L837,664.8z M2113.8,579.5h-0.6c-1.8-0.4-3.1-2-2.8-4l1.1-6.7c0.3-1.8,2.1-3.1,3.8-2.8
					c1.8,0.3,3.1,2,2.8,3.8c-0.4,2.3-0.8,4.5-1.1,6.6C2116.8,578.3,2115.3,579.5,2113.8,579.5L2113.8,579.5z M816.1,579.5
					c-1.7,0-3.1-1.2-3.3-2.8c-0.4-2.2-0.8-4.5-1.2-6.6c-0.3-1.8,0.9-3.6,2.8-3.8c1.8-0.3,3.6,0.9,3.8,2.8c0.4,2.2,0.8,4.5,1.2,6.7
					c0.4,1.8-0.9,3.6-2.8,4C816.6,579.5,816.3,579.5,816.1,579.5L816.1,579.5z M2123.1,492.1h-0.1c-1.9-0.1-3.3-1.7-3.2-3.6
					c0.1-2.3,0.1-4.5,0.3-6.8c0-1.8,1.5-3.3,3.3-3.3h0.1c1.9,0,3.3,1.7,3.3,3.5c-0.1,2.3-0.1,4.6-0.3,6.8
					C2126.4,490.7,2124.9,492.1,2123.1,492.1L2123.1,492.1z M806.7,492.1c-1.8,0-3.3-1.4-3.3-3.2c-0.1-2.3-0.1-4.5-0.3-6.8
					c0-1.9,1.4-3.5,3.3-3.5h0.1c1.8,0,3.3,1.4,3.3,3.3c0.1,2.3,0.1,4.5,0.3,6.8c0.1,1.9-1.4,3.5-3.2,3.6
					C806.8,492.1,806.8,492.1,806.7,492.1L806.7,492.1z M2120.9,404.4c-1.8,0-3.2-1.3-3.3-3.1c-0.3-2.3-0.4-4.5-0.6-6.6
					c-0.1-1.9,1.1-3.6,3.1-3.7c1.9-0.1,3.6,1.1,3.7,3.1c0.3,2.3,0.5,4.5,0.6,6.8c0.1,1.9-1.1,3.5-3.1,3.7
					C2121,404.4,2120.9,404.4,2120.9,404.4L2120.9,404.4z M809,404.2h-0.3c-1.9-0.1-3.2-1.8-3.1-3.7c0.3-2.3,0.4-4.5,0.6-6.8
					c0.1-1.9,1.9-3.2,3.7-3.1c1.9,0.1,3.2,1.8,3.1,3.7c-0.3,2.2-0.4,4.5-0.6,6.6C812.2,402.9,810.7,404.2,809,404.2L809,404.2z
					 M2107,317.5c-1.5,0-2.9-1-3.3-2.7l-1.5-6.5c-0.4-1.8,0.6-3.7,2.6-4.1c1.8-0.4,3.7,0.6,4.1,2.5l1.5,6.6c0.4,1.8-0.8,3.6-2.5,4.1
					L2107,317.5L2107,317.5z M822.8,317.5c-0.3,0-0.5,0-0.8-0.1c-1.8-0.4-2.9-2.2-2.5-4.1l1.5-6.6c0.4-1.8,2.3-2.9,4.1-2.5
					c1.8,0.4,2.9,2.3,2.6,4.1l-1.5,6.5C825.8,316.5,824.4,317.5,822.8,317.5L822.8,317.5z M2081.7,233.5c-1.4,0-2.7-0.9-3.2-2.2
					c-0.8-2-1.5-4.2-2.4-6.3c-0.6-1.8,0.1-3.7,1.9-4.4c1.8-0.6,3.7,0.1,4.4,1.9c0.8,2.2,1.7,4.2,2.4,6.4c0.6,1.8-0.3,3.7-1.9,4.4
					C2082.5,233.4,2082.1,233.5,2081.7,233.5L2081.7,233.5z M848.3,233.4c-0.4,0-0.8-0.1-1.2-0.3c-1.8-0.6-2.7-2.6-1.9-4.4
					c0.8-2.2,1.7-4.2,2.4-6.4c0.7-1.8,2.7-2.5,4.3-1.9c1.8,0.6,2.6,2.7,1.9,4.3c-0.8,2-1.7,4.2-2.4,6.3
					C850.8,232.4,849.5,233.3,848.3,233.4L848.3,233.4z M2045.5,153.5c-1.2,0-2.4-0.6-2.9-1.8c-1-1.9-2.2-3.9-3.2-5.9
					c-0.9-1.7-0.3-3.7,1.3-4.6c1.7-0.9,3.7-0.3,4.6,1.3c1.2,1.9,2.2,4,3.2,6c0.9,1.7,0.3,3.7-1.4,4.6
					C2046.5,153.4,2046,153.5,2045.5,153.5L2045.5,153.5z M884.7,153.3c-0.5,0-1.2-0.1-1.7-0.4c-1.7-0.9-2.3-2.9-1.4-4.6
					c1-2.1,2.2-4,3.3-6c0.9-1.7,2.9-2.2,4.6-1.3c1.7,0.9,2.2,2.9,1.3,4.6c-1,1.9-2.2,4-3.2,5.9C886.9,152.6,885.8,153.3,884.7,153.3
					L884.7,153.3z M1998.7,79.1c-1,0-2.1-0.5-2.7-1.4c-1.3-1.8-2.7-3.6-3.9-5.4c-1.2-1.5-0.8-3.6,0.8-4.7c1.5-1.2,3.6-0.8,4.7,0.8
					c1.4,1.8,2.7,3.7,4,5.5c1.2,1.5,0.8,3.6-0.8,4.7C2000.1,78.9,1999.5,79.1,1998.7,79.1L1998.7,79.1z M931.4,78.8
					c-0.7,0-1.4-0.2-2-0.6c-1.5-1.2-1.8-3.2-0.8-4.7c1.3-1.8,2.7-3.7,4.1-5.5c1.1-1.5,3.2-1.8,4.7-0.8c1.5,1.1,1.8,3.2,0.8,4.7
					c-1.3,1.8-2.7,3.6-4,5.5C933.4,78.3,932.4,78.8,931.4,78.8L931.4,78.8z M1942.6,11.5c-0.9,0-1.8-0.4-2.4-1
					c-1.5-1.7-3.1-3.2-4.6-4.9c-1.3-1.3-1.3-3.4,0.1-4.7c1.3-1.3,3.4-1.3,4.7,0.1c1.5,1.7,3.2,3.3,4.7,4.8c1.3,1.4,1.3,3.4-0.1,4.7
					C1944.3,11.3,1943.4,11.5,1942.6,11.5L1942.6,11.5z M987.6,11.3c-0.9,0-1.7-0.3-2.3-0.9c-1.4-1.3-1.4-3.4-0.1-4.7
					c1.5-1.7,3.2-3.3,4.7-4.8c1.3-1.4,3.5-1.4,4.7-0.1c1.3,1.3,1.4,3.5,0.1,4.7c-1.5,1.7-3.1,3.2-4.6,4.8
					C989.4,11,988.5,11.3,987.6,11.3z M1878-48c-0.8,0-1.5-0.3-2.2-0.8c-1.8-1.4-3.4-2.8-5.2-4.2c-1.4-1.1-1.7-3.3-0.5-4.7
					c1.1-1.4,3.3-1.7,4.7-0.5l5.4,4.2c1.4,1.2,1.7,3.3,0.5,4.7C1879.9-48.4,1879-48,1878-48L1878-48z M1052.2-48.3
					c-1,0-1.9-0.4-2.7-1.3c-1.2-1.4-0.9-3.6,0.5-4.7c1.8-1.4,3.6-2.8,5.4-4.2c1.4-1.2,3.6-0.9,4.7,0.5c1.2,1.4,0.9,3.6-0.5,4.7
					c-1.8,1.4-3.6,2.8-5.3,4.2C1053.6-48.5,1053-48.3,1052.2-48.3L1052.2-48.3z M1806.1-98.5c-0.6,0-1.2-0.1-1.8-0.5l-5.7-3.4
					c-1.7-0.9-2.2-3.1-1.2-4.6c0.9-1.7,3.1-2.2,4.6-1.2c1.9,1.2,3.9,2.3,5.9,3.4c1.7,1,2,3.1,1.1,4.6
					C1808.3-99.1,1807.2-98.5,1806.1-98.5L1806.1-98.5z M1124.1-98.6c-1.1,0-2.3-0.6-2.9-1.7c-1-1.7-0.5-3.7,1.2-4.6
					c1.9-1.2,3.8-2.3,5.9-3.4c1.7-0.9,3.7-0.4,4.6,1.2c0.9,1.7,0.4,3.7-1.2,4.6l-5.8,3.4C1125.3-98.8,1124.7-98.6,1124.1-98.6
					L1124.1-98.6z M1728.1-138.9c-0.5,0-0.9-0.1-1.4-0.3c-2.1-0.9-4.1-1.8-6.3-2.7c-1.7-0.8-2.6-2.7-1.8-4.5
					c0.8-1.7,2.7-2.6,4.5-1.8c2,0.9,4.2,1.8,6.3,2.7c1.7,0.8,2.6,2.7,1.8,4.5C1730.6-139.7,1729.3-138.9,1728.1-138.9L1728.1-138.9z
					 M1202-139.1c-1.3,0-2.6-0.8-3.1-2c-0.8-1.7,0-3.7,1.8-4.5c2-0.9,4.1-1.8,6.3-2.7c1.7-0.8,3.7,0.1,4.5,1.8
					c0.8,1.6-0.1,3.7-1.8,4.5c-2,0.9-4.1,1.8-6.1,2.7C1202.9-139.1,1202.5-139.1,1202-139.1L1202-139.1z M1645.2-168.6
					c-0.3,0-0.6,0-0.9-0.1c-2.2-0.6-4.3-1.3-6.5-1.8c-1.8-0.5-2.8-2.3-2.4-4.2c0.5-1.8,2.3-2.8,4.2-2.4c2.2,0.6,4.4,1.1,6.5,1.8
					c1.8,0.5,2.8,2.4,2.3,4.2C1648.1-169.6,1646.7-168.6,1645.2-168.6L1645.2-168.6z M1284.8-168.6c-1.5,0-2.8-1-3.2-2.4
					c-0.5-1.8,0.5-3.7,2.3-4.2c2.2-0.6,4.3-1.3,6.5-1.8c1.8-0.5,3.7,0.5,4.2,2.4c0.5,1.8-0.5,3.7-2.4,4.2c-2.2,0.6-4.3,1.2-6.5,1.8
					C1285.4-168.7,1285-168.6,1284.8-168.6L1284.8-168.6z M1559.4-186.8h-0.5c-2.2-0.3-4.5-0.6-6.7-0.9c-1.8-0.3-3.2-1.9-2.9-3.8
					c0.3-1.8,1.9-3.2,3.8-2.9c2.3,0.3,4.5,0.6,6.8,0.9c1.8,0.3,3.2,1.9,2.8,3.8C1562.4-188.1,1561-186.8,1559.4-186.8L1559.4-186.8z
					 M1370.7-186.8c-1.7,0-3.1-1.3-3.3-2.9c-0.3-1.8,1-3.6,2.8-3.8c2.3-0.4,4.5-0.6,6.8-0.9c1.8-0.3,3.6,1,3.8,2.9
					c0.3,1.8-1,3.6-2.9,3.8c-2.2,0.3-4.5,0.6-6.6,0.9L1370.7-186.8L1370.7-186.8z M1471.8-193.6
					C1471.8-193.6,1471.6-193.6,1471.8-193.6h-13.4c-1.8,0-3.5-1.5-3.5-3.3c0-1.9,1.5-3.4,3.3-3.4h13.6c1.9,0,3.3,1.5,3.3,3.4
					S1473.5-193.6,1471.8-193.6L1471.8-193.6z M1508.3,1256.3c-2,0-3.8-1.7-4-3.7c-0.1-2.2,1.6-4.1,3.7-4.2c2.7-0.1,5.2-0.4,7.9-0.5
					c2.2-0.1,4.1,1.5,4.2,3.7c0.1,2.2-1.5,4.1-3.7,4.2c-2.7,0.1-5.4,0.4-8,0.5H1508.3L1508.3,1256.3z M1412.5,1256.3h-0.3
					c-2.7-0.1-5.4-0.4-8-0.5c-2.2-0.1-3.8-2.1-3.7-4.2c0.1-2.2,2.1-3.8,4.2-3.7c2.7,0.1,5.2,0.4,7.9,0.5c2.2,0.1,3.8,2.1,3.7,4.2
					C1416.3,1254.7,1414.5,1256.3,1412.5,1256.3L1412.5,1256.3z M1611.3,1243.2c-1.9,0-3.6-1.3-4-3.2c-0.4-2.2,1-4.2,3.2-4.7
					l7.8-1.5c2.2-0.4,4.2,0.9,4.7,3.1c0.5,2.2-0.9,4.2-3.1,4.7c-2.7,0.5-5.2,1-7.9,1.5C1611.8,1243.2,1611.6,1243.2,1611.3,1243.2
					L1611.3,1243.2z M1309.4,1243.2c-0.3,0-0.5,0-0.8-0.1c-2.7-0.5-5.2-1-7.9-1.5c-2.2-0.5-3.6-2.6-3.1-4.7c0.4-2.2,2.6-3.6,4.7-3.1
					l7.8,1.5c2.2,0.4,3.6,2.6,3.2,4.7C1313,1241.8,1311.3,1243.2,1309.4,1243.2L1309.4,1243.2z M1711.6,1216.4c-1.7,0-3.2-1-3.8-2.7
					c-0.8-2.1,0.4-4.3,2.6-5.1c2.6-0.9,5-1.8,7.5-2.6c2-0.8,4.3,0.4,5.1,2.4c0.8,2-0.4,4.3-2.4,5.1c-2.6,0.9-5.1,1.8-7.5,2.7
					C1712.5,1216.2,1712.1,1216.4,1711.6,1216.4L1711.6,1216.4z M1209,1216.4c-0.4,0-0.9-0.1-1.3-0.3c-2.6-0.9-5.1-1.8-7.7-2.7
					c-2-0.8-3.2-3.1-2.4-5.1c0.8-2.1,3.1-3.2,5.1-2.4c2.6,0.9,5,1.8,7.6,2.5c2,0.8,3.2,2.9,2.6,5.1
					C1212.2,1215.2,1210.7,1216.3,1209,1216.4L1209,1216.4z M1807.4,1176.4c-1.4,0-2.9-0.8-3.6-2.2c-1-1.9-0.1-4.3,1.8-5.3
					c2.4-1.2,4.7-2.4,7-3.6c1.9-1,4.4-0.3,5.4,1.8c1,1.9,0.3,4.3-1.8,5.3c-2.4,1.3-4.7,2.4-7.1,3.6
					C1808.6,1176.3,1808,1176.4,1807.4,1176.4L1807.4,1176.4z M1113.2,1176.3c-0.6,0-1.2-0.1-1.8-0.4c-2.4-1.1-4.8-2.4-7.1-3.6
					c-1.9-1-2.7-3.4-1.8-5.4c1-1.9,3.5-2.7,5.4-1.8c2.4,1.2,4.7,2.4,7.1,3.6c1.9,1,2.8,3.4,1.8,5.3
					C1116,1175.5,1114.6,1176.3,1113.2,1176.3L1113.2,1176.3z M1897,1123.9c-1.3,0-2.6-0.7-3.3-1.8c-1.3-1.8-0.8-4.3,1-5.5
					c2.2-1.5,4.3-2.9,6.5-4.5c1.8-1.3,4.3-0.8,5.6,1c1.3,1.8,0.8,4.3-1,5.6c-2.2,1.6-4.3,3.1-6.7,4.6
					C1898.6,1123.8,1897.8,1123.9,1897,1123.9L1897,1123.9z M1023.6,1123.8c-0.8,0-1.5-0.3-2.3-0.6c-2.2-1.5-4.5-3.1-6.6-4.6
					c-1.8-1.3-2.3-3.7-1-5.6c1.3-1.8,3.7-2.3,5.6-1c2.2,1.5,4.3,3.1,6.5,4.5c1.8,1.3,2.3,3.7,1,5.5
					C1026,1123.1,1024.9,1123.8,1023.6,1123.8L1023.6,1123.8z M1978.8,1060c-1.2,0-2.2-0.5-2.9-1.3c-1.5-1.7-1.3-4.2,0.4-5.6
					c1.9-1.8,3.9-3.6,5.9-5.4c1.7-1.5,4.2-1.4,5.6,0.3c1.5,1.7,1.4,4.2-0.3,5.6c-1.9,1.8-3.9,3.6-6,5.4
					C1980.7,1059.8,1979.8,1060,1978.8,1060L1978.8,1060z M941.7,1059.8c-0.9,0-1.9-0.4-2.7-1c-2-1.8-3.9-3.6-6-5.4
					c-1.7-1.5-1.8-4-0.2-5.6c1.5-1.7,4-1.8,5.6-0.3c1.9,1.8,4,3.6,5.9,5.4c1.7,1.5,1.8,4,0.3,5.6
					C943.9,1059.4,942.7,1059.8,941.7,1059.8z M2051.6,986c-0.9,0-1.8-0.3-2.6-1c-1.7-1.4-1.9-4-0.4-5.6c1.8-2,3.4-4.1,5.1-6
					c1.4-1.7,4-1.9,5.6-0.5c1.7,1.4,1.9,4,0.5,5.6c-1.8,2-3.4,4.1-5.2,6.1C2053.7,985.5,2052.6,986,2051.6,986L2051.6,986z
					 M869.1,985.6c-1.2,0-2.3-0.5-3.1-1.4c-1.8-2-3.5-4.1-5.2-6.1c-1.4-1.7-1.2-4.2,0.5-5.6c1.7-1.4,4.2-1.1,5.6,0.5
					c1.7,2,3.5,4.1,5.1,6c1.4,1.7,1.3,4.2-0.4,5.6C870.8,985.3,869.9,985.6,869.1,985.6z M2113.8,902.8c-0.8,0-1.5-0.3-2.2-0.6
					c-1.9-1.2-2.4-3.7-1.2-5.5c1.4-2.2,2.9-4.5,4.3-6.6c1.1-1.9,3.7-2.4,5.5-1.3c1.9,1.2,2.4,3.7,1.3,5.5c-1.4,2.3-2.9,4.5-4.3,6.8
					C2116.3,902.2,2115,902.8,2113.8,902.8L2113.8,902.8z M806.8,902.4c-1.3,0-2.5-0.6-3.3-1.8c-1.4-2.3-2.9-4.5-4.3-6.8
					c-1.1-1.9-0.6-4.3,1.3-5.5c1.9-1.1,4.3-0.6,5.5,1.3c1.4,2.3,2.8,4.5,4.3,6.6c1.2,1.9,0.6,4.3-1.2,5.5
					C808.4,902.3,807.6,902.4,806.8,902.4L806.8,902.4z M2164.3,812c-0.5,0-1.1-0.1-1.7-0.4c-2.1-0.9-2.8-3.3-1.9-5.3
					c1.1-2.4,2.3-4.8,3.3-7.3c0.9-2,3.3-3,5.4-1.9c2,0.9,2.9,3.3,1.9,5.4l-3.4,7.3C2167.3,811.2,2165.9,812,2164.3,812L2164.3,812z
					 M756.3,811.9c-1.5,0-2.9-0.9-3.6-2.3l-3.5-7.3c-0.9-2,0-4.3,1.9-5.3c2-0.9,4.3,0,5.3,1.9c1.2,2.4,2.2,4.9,3.3,7.2
					c0.9,2.1,0.1,4.4-1.9,5.4C757.4,811.8,756.9,811.9,756.3,811.9L756.3,811.9z M2202.4,715.3c-0.4,0-0.8,0-1.3-0.1
					c-2-0.6-3.3-2.9-2.6-5c0.8-2.6,1.7-5.1,2.4-7.7c0.6-2.2,2.9-3.3,5-2.7c2.2,0.7,3.3,3,2.7,5c-0.8,2.5-1.5,5.1-2.4,7.7
					C2205.7,714.3,2204.2,715.3,2202.4,715.3L2202.4,715.3z M718.4,715.2c-1.7,0-3.3-1-3.8-2.8c-0.8-2.5-1.7-5.1-2.4-7.7
					c-0.6-2.2,0.5-4.3,2.7-5c2-0.6,4.3,0.5,5,2.7c0.8,2.5,1.5,5.1,2.4,7.5c0.6,2-0.5,4.3-2.6,5C719.1,715.2,718.7,715.2,718.4,715.2
					L718.4,715.2z M2227.2,614.5h-0.6c-2.2-0.4-3.6-2.4-3.2-4.6c0.5-2.5,0.9-5.2,1.3-7.8c0.4-2.2,2.4-3.7,4.6-3.3
					c2.2,0.4,3.7,2.4,3.3,4.6c-0.4,2.7-0.9,5.2-1.4,7.9C2230.8,613.2,2229.1,614.5,2227.2,614.5L2227.2,614.5z M693.6,614.5
					c-1.9,0-3.6-1.4-4-3.3c-0.5-2.7-0.9-5.2-1.4-7.9c-0.4-2.2,1.2-4.2,3.3-4.6c2.2-0.4,4.2,1.1,4.6,3.3c0.4,2.7,0.9,5.2,1.3,7.8
					c0.4,2.2-1,4.2-3.2,4.6C694.1,614.3,693.8,614.4,693.6,614.5L693.6,614.5z M2238.3,511.3h-0.1c-2.2-0.1-4-1.9-3.8-4.2
					c0.1-2.7,0.3-5.2,0.3-7.9c0.1-2.2,1.8-3.8,4-3.8h0.1c2.2,0.1,4,1.9,3.8,4.1c-0.1,2.7-0.1,5.4-0.3,8
					C2242.1,509.6,2240.3,511.2,2238.3,511.3L2238.3,511.3z M682.6,511.1c-2.2,0-4-1.7-4-3.8c-0.1-2.7-0.3-5.4-0.3-8
					c-0.1-2.2,1.7-4.1,3.8-4.1h0.1c2.2,0,4,1.7,4,3.8c0.1,2.7,0.1,5.2,0.3,7.9c0.1,2.2-1.7,4.1-3.8,4.2L682.6,511.1L682.6,511.1z
					 M2235.6,407.4c-2,0-3.8-1.5-4-3.6l-0.8-7.9c-0.3-2.2,1.4-4.2,3.6-4.4c2.2-0.3,4.2,1.4,4.3,3.6l0.8,8c0.3,2.2-1.4,4.1-3.6,4.4
					C2235.8,407.4,2235.7,407.4,2235.6,407.4L2235.6,407.4z M685.2,407.4h-0.4c-2.2-0.3-3.8-2.2-3.6-4.3c0.3-2.7,0.5-5.4,0.8-8
					c0.3-2.2,2.2-3.8,4.3-3.6c2.2,0.3,3.8,2.2,3.6,4.3l-0.8,7.9C689,405.8,687.2,407.4,685.2,407.4L685.2,407.4z M2219.3,304.9
					c-1.8,0-3.4-1.3-3.8-3.1c-0.6-2.5-1.1-5.1-1.8-7.8c-0.5-2.2,0.8-4.3,2.9-4.8c2.2-0.5,4.3,0.8,4.9,2.9c0.6,2.5,1.3,5.2,1.8,7.8
					c0.5,2.2-0.9,4.3-3.1,4.7C2219.9,304.9,2219.7,304.9,2219.3,304.9z M701.5,304.9c-0.3,0-0.6,0-0.9-0.1c-2.2-0.5-3.4-2.7-3-4.7
					c0.6-2.5,1.2-5.2,1.8-7.8c0.5-2.2,2.7-3.5,4.8-2.9c2.2,0.5,3.4,2.7,2.9,4.8c-0.6,2.5-1.3,5.1-1.8,7.8
					C705.1,303.6,703.4,304.9,701.5,304.9L701.5,304.9z M2189.4,205.5c-1.7,0-3.2-1-3.7-2.6c-0.9-2.4-1.9-5-2.8-7.4
					c-0.8-2.1,0.2-4.4,2.3-5.2c2-0.8,4.3,0.3,5.2,2.3c1,2.6,1.9,5,2.8,7.5c0.8,2.1-0.3,4.3-2.3,5.1
					C2190.3,205.4,2189.9,205.5,2189.4,205.5L2189.4,205.5z M731.5,205.4c-0.5,0-0.9-0.1-1.4-0.3c-2-0.8-3.1-3.1-2.3-5.1
					c0.9-2.6,1.9-5,2.9-7.5c0.8-2,3.1-3.1,5.2-2.3c2,0.8,3.1,3.1,2.3,5.2c-1,2.4-1.9,5-2.8,7.4C734.6,204.4,733.2,205.4,731.5,205.4
					L731.5,205.4z M2146.5,111c-1.4,0-2.8-0.8-3.6-2.1c-1.3-2.3-2.6-4.6-3.8-7c-1-1.9-0.4-4.3,1.5-5.5c1.9-1,4.4-0.4,5.5,1.5
					c1.3,2.3,2.6,4.7,3.8,7c1,1.9,0.3,4.3-1.6,5.4C2147.8,110.9,2147.1,111,2146.5,111z M774.6,110.7c-0.6,0-1.3-0.1-1.9-0.5
					c-1.9-1-2.7-3.5-1.7-5.4c1.3-2.4,2.6-4.7,3.8-7c1-1.9,3.4-2.7,5.5-1.5c1.9,1,2.7,3.5,1.5,5.5c-1.3,2.3-2.5,4.6-3.8,7
					C777.4,110,776,110.7,774.6,110.7L774.6,110.7z M2091.3,23.1c-1.3,0-2.4-0.5-3.2-1.7c-1.5-2.2-3.1-4.3-4.7-6.4
					c-1.3-1.8-0.9-4.2,0.9-5.6c1.8-1.3,4.2-0.9,5.6,0.9c1.5,2.2,3.2,4.3,4.7,6.5c1.3,1.8,0.9,4.4-0.9,5.6
					C2093,22.9,2092.1,23.1,2091.3,23.1L2091.3,23.1z M829.7,22.7c-0.8,0-1.7-0.3-2.3-0.8c-1.8-1.3-2.2-3.8-0.9-5.6
					c1.5-2.2,3.2-4.3,4.7-6.5c1.3-1.8,3.8-2.2,5.6-0.9c1.8,1.3,2.2,3.8,0.9,5.6c-1.5,2.2-3.2,4.2-4.7,6.4
					C832.3,22.2,831,22.8,829.7,22.7L829.7,22.7z M2025-56.7c-1,0-2.2-0.4-2.9-1.3c-1.8-1.9-3.7-3.8-5.5-5.7
					c-1.5-1.6-1.5-4.1,0.1-5.6c1.5-1.5,4.1-1.5,5.6,0.1c1.9,1.9,3.7,3.8,5.6,5.7c1.5,1.7,1.4,4.1-0.1,5.6
					C2026.9-57.1,2025.9-56.7,2025-56.7L2025-56.7z M896.1-57c-1,0-2-0.4-2.8-1.2c-1.7-1.5-1.7-4.1-0.1-5.6c1.8-1.9,3.7-3.8,5.6-5.8
					c1.5-1.5,4.1-1.7,5.6-0.1c1.5,1.5,1.7,4.1,0.1,5.6c-1.8,1.9-3.7,3.8-5.5,5.8C898.3-57.4,897.3-57,896.1-57L896.1-57z
					 M1948.6-127.2c-0.9,0-1.8-0.2-2.6-0.9c-2.1-1.7-4.1-3.3-6.3-5c-1.8-1.4-2.1-3.8-0.6-5.6c1.4-1.8,3.8-2.1,5.6-0.6
					c2,1.7,4.2,3.3,6.3,5c1.7,1.4,2,4,0.6,5.6C1950.9-127.7,1949.8-127.2,1948.6-127.2L1948.6-127.2z M972.5-127.4
					c-1.2,0-2.3-0.5-3.1-1.5c-1.4-1.7-1.2-4.2,0.6-5.6c2-1.7,4.2-3.3,6.3-5c1.8-1.4,4.2-1,5.6,0.6c1.4,1.8,1,4.2-0.6,5.6
					c-2,1.7-4.2,3.3-6.3,5C974.3-127.7,973.4-127.4,972.5-127.4L972.5-127.4z M1863.6-186.8c-0.8,0-1.4-0.1-2-0.6
					c-2.3-1.4-4.6-2.7-6.9-4.1c-1.9-1.1-2.6-3.6-1.4-5.5c1.2-1.9,3.6-2.6,5.5-1.4c2.3,1.4,4.6,2.8,6.9,4.1c1.9,1.1,2.5,3.6,1.4,5.5
					C1866.3-187.4,1864.8-186.8,1863.6-186.8L1863.6-186.8z M1057.6-186.9c-1.4,0-2.7-0.6-3.4-1.9c-1.1-1.9-0.5-4.4,1.4-5.5
					c2.3-1.4,4.6-2.8,6.9-4.1c1.9-1.1,4.3-0.5,5.5,1.4c1.2,1.9,0.5,4.4-1.4,5.5c-2.3,1.4-4.6,2.7-6.8,4.1
					C1059-187.2,1058.3-186.9,1057.6-186.9z M1771.4-234.6c-0.5,0-1-0.1-1.7-0.4c-2.4-1-4.8-2.2-7.3-3.2c-2-0.9-2.9-3.2-2.2-5.2
					c0.9-2.1,3.2-2.9,5.2-2.2c2.4,1,5,2.2,7.4,3.2c2,0.9,2.9,3.2,2,5.2C1774.3-235.5,1772.9-234.6,1771.4-234.6L1771.4-234.6z
					 M1149.7-234.7c-1.5,0-3.1-0.9-3.7-2.4c-0.9-2,0-4.3,2-5.2c2.4-1,4.8-2.2,7.4-3.2c2-0.9,4.3,0.1,5.2,2.2s-0.1,4.3-2.2,5.2
					l-7.3,3.1C1150.8-234.8,1150.3-234.7,1149.7-234.7L1149.7-234.7z M1673.5-269.7c-0.4,0-0.8,0-1.1-0.1c-2.6-0.8-5.1-1.4-7.7-2.2
					c-2.2-0.6-3.4-2.8-2.8-4.9c0.6-2.2,2.8-3.3,4.8-2.8c2.6,0.8,5.1,1.4,7.8,2.2c2.2,0.6,3.3,2.8,2.8,5
					C1676.9-270.8,1675.2-269.7,1673.5-269.7L1673.5-269.7z M1247.5-269.7c-1.8,0-3.3-1.1-3.8-2.9c-0.6-2.2,0.6-4.4,2.8-5
					c2.6-0.8,5.1-1.4,7.8-2.2c2.2-0.6,4.3,0.6,4.8,2.8c0.6,2.2-0.6,4.4-2.8,4.9c-2.6,0.6-5.1,1.4-7.7,2.2
					C1248.1-269.7,1247.7-269.7,1247.5-269.7L1247.5-269.7z M1572-291.3h-0.5c-2.7-0.4-5.2-0.8-7.9-1.1c-2.2-0.3-3.7-2.3-3.4-4.5
					c0.3-2.2,2.3-3.7,4.5-3.5c2.7,0.4,5.4,0.8,7.9,1.1c2.2,0.3,3.7,2.3,3.5,4.5C1575.6-292.7,1573.9-291.3,1572-291.3z M1349-291.3
					c-1.9,0-3.7-1.4-4-3.5c-0.3-2.2,1.2-4.2,3.4-4.5c2.7-0.4,5.4-0.8,7.9-1.1c2.2-0.3,4.2,1.3,4.5,3.5s-1.3,4.2-3.5,4.5
					c-2.7,0.4-5.2,0.8-7.9,1.1H1349L1349-291.3z M1468.4-299.1h-15.8c-2.2,0-4-1.8-4-4s1.8-4,4-4.1h16c2.2,0,4,1.8,4,4.1
					C1472.4-300.9,1470.6-299.1,1468.4-299.1L1468.4-299.1z M1459.4,667.6c-121.5,0-220.1-98.7-220.1-220.1
					c0-121.5,98.7-220.1,220.1-220.1c121.5,0,220.1,98.7,220.1,220.1C1679.6,569,1580.9,667.6,1459.4,667.6z M1459.4,228.9
					c-120.7,0-218.9,98.1-218.9,218.9c0,120.7,98.2,218.9,218.9,218.9s218.9-98.2,218.9-218.9C1678.3,327,1580.2,228.9,1459.4,228.9
					z"/>
				<path fill="#C7491B" d="M1549.3,736.9l-0.3-0.5l-21.6-67.3l0.5-0.3c97.1-30.9,162.4-120.2,162.4-222.7c0-5-0.2-10.3-0.7-16.8
					v-0.5h0.5l70.5-5.3v0.5c0.5,7.3,0.8,14.8,0.8,22.1c0,65.8-20.8,128.5-60,181.2c-37.9,51-91.9,89.9-152.1,109.2L1549.3,736.9
					L1549.3,736.9z M1528.7,669.7l21.1,65.8c126.3-40.7,210.8-156.9,210.8-289.2c0-7-0.3-14.3-0.8-21.3l-69,5
					c0.5,6.3,0.8,11.3,0.8,16.3c0,51-15.8,99.4-45.9,139.8C1616.1,626,1575.7,654.9,1528.7,669.7L1528.7,669.7z M1256.9,676.2
					l-0.5-0.3c-32.1-28.1-58.5-63.5-76.6-101.9l-0.3-0.5l64.5-29.6l0.3,0.5c13.8,29.9,33.4,56,58.2,77.8l0.3,0.3l-0.3,0.3
					L1256.9,676.2L1256.9,676.2z M1181.3,573.8c17.8,38.2,43.9,73,75.6,100.9l44.9-52.2c-24.6-21.6-44.2-47.7-57.7-77.3
					L1181.3,573.8L1181.3,573.8z M1248.1,341.3l-63.3-32.4l0.3-0.5c25.1-49.5,63.3-91.1,110.4-120.8
					c48.4-30.4,104.2-46.4,161.4-46.4c48.7,0,97.4,11.8,140.6,34.4l0.5,0.3l-0.3,0.5l-32.4,62.8l-0.5-0.3
					c-33.6-17.3-69.8-26.4-107.9-26.4c-88.9,0-168.7,49.2-208.6,128.3L1248.1,341.3L1248.1,341.3z M1186.3,308.7l61.5,31.4
					c40.2-79.1,120.2-128.3,209.3-128.3c38.2,0,74.3,8.8,107.9,26.1l31.6-61.3c-42.9-22.3-91.1-34.1-139.6-34.1
					C1342.2,142.5,1238.5,206,1186.3,308.7L1186.3,308.7z"/>
				<path fill="#C7491B" d="M1450.9,911.4c-254.5,0-461.9-207.1-461.9-461.9c0-254.5,207.1-461.9,461.9-461.9
					c254.5,0,461.9,207.1,461.9,461.9C1912.5,704.1,1705.4,911.4,1450.9,911.4L1450.9,911.4z M1450.9-9.9
					c-253.3,0-459.4,206.1-459.4,459.4c0,253.3,206.1,459.4,459.4,459.4s459.4-206.1,459.4-459.4
					C1910.3,196.3,1704.2-9.8,1450.9-9.9L1450.9-9.9z"/>
				<path fill="#C7491B" d="M1451.4,899.8c-13.1,0-26.3-0.5-39.4-1.8h-1l9.8-103.4h1c47.7,4.3,94.9-1.3,140.3-16.6l1-0.3l34.2,97.9
					l-1,0.3C1550.1,891.8,1500.6,899.8,1451.4,899.8L1451.4,899.8z M1413.3,896.1c60.8,5.3,123.5-2.3,181.5-21.8l-32.9-94.1
					c-45.2,15.3-91.9,20.8-139.3,16.6L1413.3,896.1L1413.3,896.1z M1081.7,699.5l-0.5-0.8c-43.9-67.8-68.8-146.3-71.8-227.2
					c-3-83.1,17.3-165.2,59-237.5l0.8,0.5l-0.8-0.5c35.4-61.5,85.8-114.2,145.6-152.1l0.8-0.5l56.2,87.4l-0.8,0.5
					c-46.4,29.6-83.8,68.8-111.4,116.7c-64.5,112-60.8,248.3,9.8,355.9l0.5,0.8L1081.7,699.5L1081.7,699.5z M1214.5,84.3
					c-59.3,37.9-108.9,89.9-144.1,150.9c-83.3,144.3-78.6,321,12.3,461.6l83.8-54.2c-70.5-108.2-74.1-245-9.3-357.2
					c27.6-47.9,65-87.4,111.2-117L1214.5,84.3L1214.5,84.3z M1886.4,551.7l-101.7-22.1l0.3-1c31.9-144.8-33.4-292.2-162.2-366.5
					c-6.3-3.8-13.3-7.3-21.6-11.3l-1-0.5l45.4-93.9l1,0.5c9.8,4.8,19.3,9.8,28.4,15.1c82.8,47.9,146.8,119.7,185,207.6
					c36.9,85.1,46.2,181.5,26.9,271.3L1886.4,551.7L1886.4,551.7z M1787.3,527.8l97.9,21.3c40.4-188.5-44.4-379.5-211.1-475.9
					c-8.8-5-17.8-9.8-27.4-14.6L1603,149c8,4,14.6,7.5,20.8,11C1753.1,234.9,1818.7,382.5,1787.3,527.8L1787.3,527.8z"/>
				<path fill="#C7491B" d="M1320.1,1081.1l-1-0.3c-114-24.1-219.1-78.8-304.7-158.4c-87.9-81.6-150.6-186-181.7-302
					c-26.6-98.9-28.9-203.8-6.5-303.5l0.3-1L972,347.8l-0.3,1c-17.1,77.3-15.3,155.9,5.3,233c48.2,180,191.3,315.3,373,353.2l1,0.3
					L1320.1,1081.1L1320.1,1081.1z M827.9,318.5c-21.8,98.9-19.6,203.1,6.8,301.2c62.3,232.4,247.5,407.9,483.7,458.6l30.4-141.6
					c-87.4-18.3-168.2-60.3-233.4-121c-67.5-62.7-116-143.6-140.1-233.4c-20.6-77.1-22.6-155.4-5.8-233L827.9,318.5L827.9,318.5z
					 M1858.6,947.5l-94.9-115l0.8-0.8c53.2-44.2,95.6-98.1,126.3-160.1l0.5-1l1,0.5l133,64.3l-0.5,1
					c-39.7,80.6-96.7,153.1-165.2,210.4L1858.6,947.5L1858.6,947.5z M1766.7,832.8l92.1,111.7c67.5-56.7,124-128.5,163.4-208.1
					l-130-62.8C1861.6,735.2,1819.4,788.9,1766.7,832.8L1766.7,832.8z M1863.8,190.7l-0.5-1C1748.1,9.5,1531.2-74.4,1323.9-18.6
					c-10.1,2.8-20.8,6-33.7,10.5l-1,0.3l-49.2-141.3l1-0.3c14.8-5,29.6-9.8,44.2-13.6c133.3-35.6,271.6-27.6,400.1,23.1
					c124,49.2,231.9,137.6,303.7,249l0.5,1L1863.8,190.7L1863.8,190.7z M1451.9-37.7c61.3,0,122,11.5,179.7,34.4
					c96.4,38.1,176.7,104.2,232.7,191l122-78.3C1835.2-124.3,1553.8-233,1285.5-161c-14.1,3.8-28.6,8.3-42.9,13.1l47.9,137.3
					c12.3-4.3,22.8-7.5,32.6-10C1365.8-32.2,1409-37.7,1451.9-37.7L1451.9-37.7z"/>
				<g>
					<path fill="#C7491B" d="M1385.7,120.8h-15.6l-1.5-8.5c-1.7-0.7-3.6-1.5-5.2-2.3l-7.1,4.7l-10.9-10.9l4.6-7
						c-1-1.8-1.8-3.4-2.3-5.3l-8.3-1.3V75.1l8.1-0.9c0.1-0.3,0.3-0.8,0.4-1.1c0.4-1.3,1-2.6,1.8-4l-4.7-7l10.9-10.9l7,5.2
						c1.8-1,3.4-1.8,5.3-2.3l1.3-8.3h15.2l0.9,8.4c1.7,0.5,3.5,1.2,5.2,2.3l7-5.2l11,11l-5.2,7.1c1,2.1,1.8,3.7,2.3,5.2l8.4,1.3V91
						l-7.1,1.3c-0.4,1.7-1.2,3.5-2.3,5.3l5.2,7l-11,11l-7-5.2c-1.8,1-3.4,1.8-5.3,2.2L1385.7,120.8L1385.7,120.8z M1372.1,118.5
						h11.6l1.3-8l0.8-0.1c2.1-0.4,3.8-1.2,6-2.6l0.7-0.4l6.6,4.8l8.1-8.1l-4.8-6.6l0.4-0.7c1.2-2,2.1-4.2,2.6-6.1l0.2-0.8l6.6-1.3
						V77.4l-8-1.3l-0.2-0.8c-0.4-1.7-1.3-3.5-2.6-6.1l-0.3-0.7l0.4-0.6l4.4-6l-8.1-8.1l-6.6,4.8l-0.7-0.5c-2-1.2-4.2-2.1-6.1-2.6
						l-0.8-0.2l-0.9-8h-11.1l-1.3,8l-0.8,0.1c-2.1,0.5-3.8,1.3-5.9,2.6l-0.7,0.5l-6.6-4.8l-8.1,8.1l4.4,6.6l-0.3,0.7
						c-0.9,1.6-1.3,2.8-1.9,4.4c-0.2,0.6-0.5,1.2-0.7,1.8l-0.2,0.7L1342,77v11.1l8,1.3l0.1,0.8c0.5,2.1,1.3,3.8,2.6,5.9l0.3,0.7
						l-4.4,6.6l8.1,8.1l6.5-4.4l0.6,0.3c1.8,0.9,4.2,1.8,6.3,2.7l0.7,0.2L1372.1,118.5L1372.1,118.5z M1376.9,97.7
						c-8.4,0-14.8-6.4-14.8-14.8s6.4-14.8,14.8-14.8c4.1,0,7.8,1.5,10.6,4.3c2.7,2.7,4.3,6.5,4.3,10.6
						C1391.8,91.4,1385.4,97.7,1376.9,97.7L1376.9,97.7z M1376.9,70.5c-7.1,0-12.4,5.4-12.4,12.4c0,7.1,5.4,12.4,12.3,12.4
						c7.1,0,12.4-5.4,12.4-12.4c0-3.4-1.2-6.5-3.6-8.9C1383.5,71.7,1380.4,70.5,1376.9,70.5L1376.9,70.5z"/>
				</g>
				<g>
					<path fill="#C7491B" d="M1959.8,182.4l1,2.3l-79.5,36.8l-1-2.3L1959.8,182.4z"/>
				</g>
			</g>
			<path fill="#C7491B" d="M1493.5,878.1c-1.5,0-2.7-1.2-2.8-2.7c-0.1-1.6,1.1-2.9,2.7-3c1.9-0.1,3.7-0.2,5.6-0.4
				c1.6-0.1,2.9,1.1,3,2.6c0.1,1.6-1.1,2.9-2.6,3c-1.9,0.1-3.8,0.3-5.7,0.4C1493.6,878.1,1493.5,878.1,1493.5,878.1L1493.5,878.1z
				 M1425.7,876.9h-0.3l-5.7-0.6c-1.6-0.2-2.7-1.6-2.5-3.1c0.2-1.6,1.6-2.7,3.1-2.5l5.6,0.6c1.6,0.2,2.7,1.5,2.5,3.1
				C1428.4,875.8,1427.1,876.9,1425.7,876.9z M1566.1,867.5c-1.3,0-2.4-0.9-2.8-2.2c-0.4-1.5,0.6-3,2.1-3.4c1.8-0.4,3.6-0.9,5.5-1.3
				c1.5-0.4,3.1,0.5,3.4,2.1c0.4,1.5-0.5,3.1-2.1,3.4c-1.8,0.5-3.7,0.9-5.5,1.3C1566.5,867.5,1566.3,867.5,1566.1,867.5
				L1566.1,867.5z M1353.5,863.6c-0.2,0-0.5,0-0.7-0.1l-5.5-1.5c-1.5-0.4-2.4-2-1.9-3.5c0.4-1.5,2-2.4,3.5-1.9l5.4,1.5
				c1.5,0.4,2.4,2,2,3.5C1355.9,862.8,1354.7,863.6,1353.5,863.6z M1635.9,844.7c-1.1,0-2.1-0.6-2.6-1.7c-0.6-1.4,0.1-3.1,1.5-3.7
				c1.7-0.7,3.4-1.5,5.1-2.2c1.4-0.6,3.1,0,3.7,1.4s0,3.1-1.4,3.7c-1.7,0.8-3.5,1.5-5.2,2.3C1636.6,844.6,1636.3,844.7,1635.9,844.7
				z M1284.6,838.3c-0.4,0-0.8-0.1-1.2-0.3c-1.7-0.8-3.4-1.6-5.2-2.5c-1.4-0.7-2-2.4-1.3-3.8s2.4-2,3.8-1.3l5.1,2.4
				c1.4,0.7,2,2.3,1.4,3.8C1286.6,837.7,1285.6,838.3,1284.6,838.3L1284.6,838.3z M1700.7,810.4c-0.9,0-1.8-0.5-2.4-1.3
				c-0.8-1.3-0.5-3.1,0.8-3.9c1.6-1,3.1-2,4.7-3.1c1.3-0.9,3.1-0.5,3.9,0.8c0.9,1.3,0.5,3.1-0.8,3.9c-1.6,1-3.2,2.1-4.8,3.1
				C1701.8,810.2,1701.2,810.4,1700.7,810.4L1700.7,810.4z M1221,801.5c-0.6,0-1.1-0.2-1.6-0.5c-1.6-1.1-3.1-2.2-4.7-3.3
				c-1.3-0.9-1.6-2.7-0.6-3.9c0.9-1.3,2.7-1.6,3.9-0.6c1.5,1.1,3.1,2.2,4.6,3.3c1.3,0.9,1.6,2.7,0.7,3.9
				C1222.7,801.1,1221.9,801.5,1221,801.5z M1758.8,765.5c-0.8,0-1.5-0.3-2.1-0.9c-1.1-1.2-1-2.9,0.2-4c1.4-1.3,2.8-2.5,4.1-3.8
				c1.1-1.1,2.9-1,4,0.1s1,2.9-0.1,4l-4.2,3.9C1760.2,765.3,1759.5,765.5,1758.8,765.5z M1164.5,754.5c-0.7,0-1.4-0.3-2-0.8
				c-1.4-1.3-2.7-2.7-4-4c-1.1-1.1-1.1-2.9,0-4s2.9-1.1,4,0c1.3,1.3,2.6,2.7,4,4c1.1,1.1,1.1,2.9,0,4
				C1166,754.2,1165.3,754.5,1164.5,754.5z M1808.5,711.5c-0.6,0-1.2-0.2-1.7-0.6c-1.2-1-1.5-2.7-0.5-4c1.1-1.5,2.3-3,3.4-4.5
				c0.9-1.2,2.7-1.5,4-0.6c1.2,0.9,1.5,2.7,0.6,4c-1.1,1.5-2.3,3-3.5,4.5C1810.2,711.1,1809.4,711.5,1808.5,711.5L1808.5,711.5z
				 M1116.8,698.7c-0.9,0-1.7-0.4-2.3-1.2c-1.1-1.5-2.2-3.1-3.3-4.6c-0.9-1.3-0.6-3,0.7-3.9c1.3-0.9,3-0.6,3.9,0.7
				c1.1,1.5,2.1,3.1,3.2,4.6c0.9,1.3,0.6,3-0.6,3.9C1118,698.5,1117.4,698.7,1116.8,698.7L1116.8,698.7z M1848.4,649.8
				c-0.4,0-0.9-0.1-1.3-0.3c-1.4-0.7-1.9-2.4-1.2-3.8c0.9-1.7,1.8-3.3,2.6-5c0.7-1.4,2.4-1.9,3.8-1.2s1.9,2.4,1.2,3.8
				c-0.9,1.7-1.8,3.4-2.6,5.1C1850.4,649.3,1849.4,649.8,1848.4,649.8z M1079.3,635.7c-1,0-2.1-0.6-2.5-1.6l-2.4-5.1
				c-0.7-1.4-0.1-3.1,1.4-3.8c1.4-0.7,3.1-0.1,3.8,1.4l2.4,5.1c0.7,1.4,0.1,3.1-1.3,3.8C1080.1,635.6,1079.7,635.7,1079.3,635.7
				L1079.3,635.7z M1877.2,582.2c-0.3,0-0.6,0-0.9-0.1c-1.5-0.5-2.3-2.1-1.8-3.6c0.6-1.8,1.2-3.6,1.7-5.4c0.5-1.5,2.1-2.3,3.5-1.9
				c1.5,0.5,2.3,2.1,1.9,3.5c-0.6,1.8-1.2,3.6-1.7,5.4C1879.5,581.5,1878.4,582.2,1877.2,582.2z M1053,567.1c-1.2,0-2.4-0.8-2.7-2
				c-0.5-1.8-1-3.6-1.5-5.5c-0.4-1.5,0.5-3.1,2-3.5s3.1,0.5,3.5,2l1.5,5.4c0.4,1.5-0.4,3.1-1.9,3.5
				C1053.6,567.1,1053.3,567.1,1053,567.1z M1894.1,510.8h-0.4c-1.5-0.2-2.6-1.7-2.4-3.2c0.3-1.9,0.5-3.7,0.8-5.6
				c0.2-1.6,1.7-2.6,3.2-2.4s2.6,1.6,2.4,3.2c-0.3,1.9-0.5,3.8-0.8,5.6C1896.6,509.7,1895.4,510.8,1894.1,510.8L1894.1,510.8z
				 M1038.8,495.1c-1.4,0-2.6-1.1-2.8-2.5l-0.6-5.7c-0.2-1.6,1-2.9,2.5-3.1s2.9,1,3.1,2.5l0.6,5.6c0.2,1.6-1,2.9-2.5,3.1
				C1039.1,495.1,1038.9,495.1,1038.8,495.1L1038.8,495.1z M1898.5,437.5c-1.5,0-2.8-1.2-2.8-2.8c0-1.9-0.1-3.7-0.2-5.6
				c-0.1-1.6,1.2-2.9,2.7-2.9c1.5-0.1,2.9,1.2,2.9,2.7c0.1,1.9,0.1,3.8,0.2,5.7C1901.4,436.1,1900.1,437.4,1898.5,437.5
				C1898.6,437.5,1898.5,437.5,1898.5,437.5L1898.5,437.5z M1037,421.7h-0.2c-1.6-0.1-2.7-1.4-2.7-3c0.1-1.9,0.2-3.8,0.4-5.7
				c0.1-1.6,1.5-2.7,3-2.6c1.6,0.1,2.7,1.5,2.6,3c-0.1,1.9-0.3,3.7-0.4,5.6C1039.8,420.5,1038.5,421.7,1037,421.7L1037,421.7z
				 M1890.6,364.5c-1.3,0-2.5-0.9-2.8-2.3c-0.4-1.8-0.7-3.7-1.1-5.5c-0.3-1.5,0.7-3,2.2-3.3s3,0.7,3.3,2.2c0.4,1.9,0.8,3.7,1.1,5.6
				c0.3,1.5-0.7,3-2.2,3.3L1890.6,364.5L1890.6,364.5z M1047.6,349.1c-0.2,0-0.4,0-0.6-0.1c-1.5-0.4-2.5-1.9-2.1-3.4
				c0.4-1.8,0.9-3.7,1.3-5.5c0.4-1.5,1.9-2.4,3.4-2.1c1.5,0.4,2.4,1.9,2.1,3.4c-0.5,1.8-0.9,3.6-1.3,5.5
				C1050.1,348.2,1048.9,349.1,1047.6,349.1z M1870.4,293.9c-1.1,0-2.2-0.7-2.6-1.8c-0.7-1.8-1.3-3.5-2-5.2
				c-0.6-1.5,0.1-3.1,1.6-3.7c1.4-0.6,3.1,0.1,3.7,1.6c0.7,1.8,1.4,3.5,2.1,5.3c0.6,1.5-0.2,3.1-1.6,3.7
				C1871.1,293.9,1870.8,293.9,1870.4,293.9z M1070.4,279.2c-0.4,0-0.7-0.1-1.1-0.2c-1.4-0.6-2.1-2.3-1.5-3.7
				c0.7-1.8,1.5-3.5,2.3-5.2c0.6-1.4,2.3-2.1,3.7-1.4c1.4,0.6,2.1,2.3,1.4,3.7c-0.8,1.7-1.5,3.4-2.2,5.2
				C1072.6,278.6,1071.5,279.2,1070.4,279.2L1070.4,279.2z M1838.5,227.9c-1,0-1.9-0.5-2.4-1.4c-1-1.6-1.9-3.2-2.9-4.8
				c-0.8-1.3-0.4-3.1,0.9-3.9c1.3-0.8,3.1-0.4,3.9,0.9c1,1.6,2,3.2,2.9,4.9c0.8,1.3,0.4,3.1-1,3.9
				C1839.5,227.7,1839,227.9,1838.5,227.9L1838.5,227.9z M1104.8,214.3c-0.5,0-1.1-0.1-1.5-0.5c-1.3-0.8-1.7-2.6-0.8-3.9
				c1-1.6,2.1-3.2,3.1-4.8c0.9-1.3,2.6-1.7,3.9-0.8s1.7,2.6,0.8,3.9c-1,1.6-2.1,3.1-3.1,4.7C1106.7,213.9,1105.7,214.3,1104.8,214.3
				L1104.8,214.3z M1795.8,168.2c-0.8,0-1.6-0.3-2.2-1c-1.2-1.4-2.4-2.8-3.7-4.2c-1-1.2-0.9-3,0.3-4s3-0.9,4,0.3l3.7,4.3
				c1,1.2,0.9,3-0.3,4C1797.1,167.9,1796.4,168.2,1795.8,168.2L1795.8,168.2z M1149.7,156.2c-0.7,0-1.4-0.2-1.9-0.7
				c-1.2-1.1-1.2-2.8-0.2-4l3.9-4.2c1.1-1.1,2.9-1.2,4-0.1c1.1,1.1,1.2,2.9,0.1,4c-1.3,1.4-2.6,2.7-3.8,4.1
				C1151.2,155.9,1150.5,156.2,1149.7,156.2z M1743.6,116.5c-0.6,0-1.3-0.2-1.8-0.7c-1.4-1.2-2.9-2.4-4.3-3.6c-1.2-1-1.4-2.8-0.4-4
				s2.8-1.4,4-0.4c1.5,1.2,2.9,2.4,4.4,3.6c1.2,1,1.4,2.8,0.4,4C1745.2,116.2,1744.4,116.5,1743.6,116.5L1743.6,116.5z
				 M1203.8,106.5c-0.8,0-1.7-0.4-2.2-1.1c-1-1.2-0.7-3,0.5-4c1.5-1.2,3-2.3,4.5-3.5c1.2-0.9,3-0.7,4,0.6c0.9,1.2,0.7,3-0.6,4
				c-1.5,1.1-3,2.3-4.5,3.4C1205,106.3,1204.4,106.5,1203.8,106.5L1203.8,106.5z M1683.4,74.4c-0.5,0-1-0.1-1.4-0.4
				c-1.6-0.9-3.3-1.9-4.9-2.8c-1.4-0.8-1.8-2.5-1.1-3.9c0.8-1.4,2.5-1.8,3.9-1.1c1.7,0.9,3.3,1.9,5,2.8c1.4,0.8,1.8,2.5,1,3.9
				C1685.4,73.9,1684.4,74.4,1683.4,74.4z M1265.4,66.7c-1,0-2-0.5-2.5-1.5c-0.7-1.4-0.2-3.1,1.2-3.8c1.7-0.9,3.3-1.8,5-2.6
				c1.4-0.7,3.1-0.2,3.8,1.2c0.7,1.4,0.2,3.1-1.2,3.8c-1.7,0.9-3.3,1.7-5,2.6C1266.3,66.6,1265.8,66.7,1265.4,66.7z M1617,43.1
				c-0.3,0-0.7-0.1-1-0.2c-1.8-0.7-3.5-1.3-5.3-1.9c-1.5-0.5-2.2-2.1-1.7-3.6s2.1-2.2,3.6-1.7c1.8,0.6,3.6,1.3,5.4,1.9
				c1.5,0.5,2.2,2.2,1.7,3.6C1619.2,42.4,1618.1,43.1,1617,43.1z M1332.9,37.9c-1.2,0-2.3-0.8-2.7-1.9c-0.5-1.5,0.3-3.1,1.8-3.6
				c1.8-0.6,3.6-1.2,5.4-1.7c1.5-0.5,3.1,0.4,3.5,1.9c0.5,1.5-0.4,3.1-1.9,3.5c-1.8,0.6-3.6,1.1-5.3,1.7
				C1333.5,37.9,1333.2,37.9,1332.9,37.9z M1546.2,23.7h-0.5c-1.8-0.3-3.7-0.7-5.5-1c-1.5-0.3-2.6-1.7-2.3-3.3
				c0.3-1.5,1.7-2.6,3.3-2.3c1.9,0.3,3.7,0.7,5.6,1c1.5,0.3,2.6,1.8,2.3,3.3C1548.7,22.7,1547.5,23.7,1546.2,23.7z M1404.4,21.1
				c-1.4,0-2.6-1-2.8-2.4c-0.2-1.5,0.8-3,2.4-3.2c1.9-0.3,3.8-0.5,5.6-0.8c1.6-0.2,3,0.9,3.2,2.4s-0.9,3-2.4,3.2
				c-1.9,0.2-3.7,0.5-5.6,0.8H1404.4L1404.4,21.1z M1473.1,16.5h-5.7c-1.6,0-2.8-1.3-2.8-2.8s1.3-2.8,2.8-2.8h5.7
				c1.6,0,2.8,1.3,2.8,2.9C1475.9,15.3,1474.7,16.5,1473.1,16.5z M1495.2,965.7c-1.8,0-3.2-1.4-3.3-3.1c-0.1-1.8,1.3-3.4,3.1-3.5
				c2.2-0.1,4.4-0.3,6.6-0.4c1.8-0.1,3.4,1.3,3.6,3.1c0.1,1.8-1.3,3.4-3.1,3.6c-2.2,0.2-4.5,0.3-6.7,0.4
				C1495.4,965.7,1495.3,965.7,1495.2,965.7z M1415.2,964.3h-0.3c-2.2-0.2-4.5-0.4-6.7-0.7c-1.8-0.2-3.2-1.9-3-3.7s1.9-3.2,3.7-3
				c2.2,0.2,4.4,0.5,6.6,0.7c1.8,0.2,3.2,1.8,3,3.6S1416.9,964.3,1415.2,964.3L1415.2,964.3z M1581.1,953.3c-1.5,0-2.9-1-3.3-2.6
				c-0.4-1.8,0.7-3.6,2.5-4c2.2-0.5,4.3-1,6.5-1.6c1.8-0.4,3.6,0.7,4,2.4c0.4,1.8-0.6,3.6-2.4,4c-2.2,0.5-4.4,1.1-6.5,1.6
				C1581.6,953.2,1581.3,953.3,1581.1,953.3L1581.1,953.3z M1329.8,948.7c-0.3,0-0.6,0-0.9-0.1l-6.5-1.8c-1.8-0.5-2.8-2.4-2.3-4.1
				c0.5-1.8,2.4-2.8,4.1-2.3l6.4,1.8c1.8,0.5,2.8,2.3,2.3,4.1C1332.6,947.7,1331.3,948.7,1329.8,948.7L1329.8,948.7z M1663.6,926.3
				c-1.3,0-2.5-0.8-3.1-2c-0.7-1.7,0.1-3.7,1.8-4.4c2-0.9,4.1-1.7,6.1-2.6c1.7-0.8,3.7,0,4.4,1.7c0.7,1.7,0,3.7-1.7,4.4
				c-2,0.9-4.1,1.8-6.2,2.7C1664.5,926.2,1664,926.3,1663.6,926.3L1663.6,926.3z M1248.3,918.7c-0.5,0-1-0.1-1.4-0.3
				c-2-1-4.1-1.9-6.1-2.9c-1.7-0.8-2.4-2.8-1.5-4.5s2.8-2.4,4.5-1.5c2,1,4,1.9,6,2.9c1.7,0.8,2.4,2.8,1.6,4.4
				C1250.8,918,1249.6,918.7,1248.3,918.7L1248.3,918.7z M1740.2,885.7c-1.1,0-2.2-0.5-2.8-1.5c-1-1.6-0.6-3.6,1-4.6
				c1.9-1.2,3.7-2.4,5.5-3.6c1.5-1,3.6-0.6,4.6,0.9s0.6,3.6-0.9,4.6c-1.9,1.2-3.7,2.5-5.6,3.7
				C1741.4,885.5,1740.8,885.7,1740.2,885.7L1740.2,885.7z M1173.2,875.2c-0.7,0-1.3-0.2-1.9-0.6c-1.8-1.3-3.7-2.6-5.5-3.9
				c-1.5-1.1-1.8-3.2-0.8-4.7c1.1-1.5,3.2-1.8,4.7-0.8c1.8,1.3,3.6,2.6,5.4,3.8c1.5,1.1,1.9,3.1,0.8,4.7
				C1175.3,874.7,1174.2,875.2,1173.2,875.2z M1808.8,832.7c-0.9,0-1.8-0.4-2.5-1.1c-1.3-1.4-1.2-3.5,0.2-4.7c1.6-1.5,3.3-3,4.9-4.5
				c1.3-1.3,3.5-1.2,4.7,0.1c1.3,1.3,1.2,3.5-0.1,4.7l-4.9,4.6C1810.5,832.4,1809.7,832.7,1808.8,832.7L1808.8,832.7z M1106.5,819.7
				c-0.8,0-1.7-0.3-2.3-1l-4.8-4.8c-1.3-1.3-1.3-3.4,0-4.7s3.4-1.3,4.7,0l4.7,4.7c1.3,1.3,1.3,3.4,0,4.7
				C1108.2,819.4,1107.3,819.7,1106.5,819.7L1106.5,819.7z M1867.6,768.9c-0.7,0-1.4-0.2-2-0.7c-1.5-1.1-1.7-3.2-0.6-4.7
				c1.4-1.7,2.7-3.5,4-5.3c1.1-1.5,3.2-1.8,4.7-0.7s1.8,3.2,0.7,4.7c-1.4,1.8-2.7,3.6-4.1,5.4
				C1869.6,768.4,1868.6,768.9,1867.6,768.9z M1050.1,753.8c-1,0-2.1-0.5-2.7-1.4c-1.3-1.8-2.6-3.6-3.9-5.5
				c-1.1-1.5-0.7-3.6,0.8-4.7s3.6-0.7,4.7,0.8c1.3,1.8,2.5,3.6,3.8,5.4c1.1,1.5,0.7,3.6-0.8,4.7
				C1051.5,753.5,1050.8,753.8,1050.1,753.8z M1914.7,696c-0.5,0-1.1-0.1-1.6-0.4c-1.6-0.9-2.3-2.9-1.4-4.5c1-2,2.1-3.9,3.1-5.9
				c0.8-1.6,2.9-2.3,4.5-1.4c1.6,0.8,2.3,2.9,1.4,4.5c-1,2-2.1,4-3.1,6C1917.1,695.3,1915.9,696,1914.7,696L1914.7,696z
				 M1005.7,679.2c-1.2,0-2.4-0.7-3-1.9c-1-2-1.9-4-2.9-6.1c-0.8-1.7-0.1-3.7,1.6-4.4c1.7-0.8,3.7-0.1,4.4,1.6c0.9,2,1.9,4,2.8,6
				c0.8,1.7,0.1,3.7-1.5,4.5C1006.7,679.1,1006.2,679.2,1005.7,679.2L1005.7,679.2z M1948.8,616.1c-0.3,0-0.7-0.1-1-0.2
				c-1.8-0.6-2.7-2.5-2.1-4.2c0.7-2.1,1.4-4.2,2-6.3c0.6-1.8,2.4-2.7,4.2-2.2c1.8,0.6,2.7,2.4,2.2,4.2c-0.7,2.2-1.4,4.3-2.1,6.4
				C1951.5,615.2,1950.2,616.1,1948.8,616.1z M974.7,598.2c-1.5,0-2.8-1-3.2-2.4l-1.8-6.5c-0.5-1.8,0.6-3.6,2.3-4.1
				c1.8-0.5,3.6,0.6,4.1,2.3l1.8,6.4c0.5,1.8-0.5,3.6-2.3,4.1C975.3,598.2,975,598.2,974.7,598.2L974.7,598.2z M1968.7,531.6h-0.5
				c-1.8-0.3-3.1-2-2.8-3.8l0.9-6.6c0.2-1.8,2-3.1,3.8-2.9c1.8,0.2,3.1,1.9,2.9,3.8l-0.9,6.7
				C1971.7,530.4,1970.3,531.6,1968.7,531.6z M957.9,513.1c-1.7,0-3.1-1.3-3.3-3c-0.2-2.2-0.5-4.5-0.7-6.7c-0.2-1.8,1.2-3.5,3-3.6
				c1.8-0.2,3.5,1.2,3.6,3c0.2,2.2,0.4,4.4,0.7,6.6c0.2,1.8-1.1,3.5-3,3.7H957.9z M1973.9,445c-1.8,0-3.3-1.4-3.3-3.3
				c-0.1-2.2-0.1-4.4-0.2-6.6c-0.1-1.8,1.4-3.4,3.2-3.5c1.8-0.1,3.4,1.4,3.5,3.2c0.1,2.2,0.1,4.5,0.2,6.7
				C1977.3,443.4,1975.9,445,1973.9,445C1974,445,1974,445,1973.9,445L1973.9,445z M955.8,426.4h-0.2c-1.8-0.1-3.2-1.7-3.1-3.5
				c0.1-2.2,0.3-4.5,0.4-6.7c0.1-1.8,1.7-3.2,3.6-3.1c1.8,0.1,3.2,1.7,3.1,3.6c-0.2,2.2-0.3,4.4-0.4,6.6
				C959,425,957.6,426.4,955.8,426.4L955.8,426.4z M1964.6,358.8c-1.6,0-3-1.1-3.3-2.7c-0.4-2.2-0.9-4.3-1.3-6.5
				c-0.4-1.8,0.8-3.6,2.6-4c1.8-0.4,3.6,0.8,4,2.6c0.5,2.2,0.9,4.4,1.3,6.6c0.4,1.8-0.8,3.6-2.6,3.9
				C1965,358.8,1964.8,358.8,1964.6,358.8z M968.3,340.5c-0.3,0-0.5,0-0.8-0.1c-1.8-0.4-2.9-2.2-2.5-4c0.5-2.2,1-4.4,1.6-6.5
				c0.4-1.8,2.3-2.9,4-2.4c1.8,0.4,2.9,2.3,2.4,4c-0.5,2.1-1.1,4.3-1.6,6.5C971.2,339.5,969.8,340.5,968.3,340.5L968.3,340.5z
				 M1940.7,275.4c-1.3,0-2.6-0.8-3.1-2.1c-0.8-2.1-1.6-4.1-2.4-6.2c-0.7-1.7,0.2-3.7,1.9-4.3c1.7-0.7,3.7,0.2,4.3,1.9l2.4,6.3
				c0.7,1.7-0.2,3.7-1.9,4.3C1941.5,275.3,1941.1,275.4,1940.7,275.4L1940.7,275.4z M995.2,258c-0.4,0-0.9-0.1-1.3-0.3
				c-1.7-0.7-2.5-2.7-1.8-4.4c0.9-2.1,1.8-4.1,2.7-6.2c0.7-1.7,2.7-2.5,4.4-1.7c1.7,0.7,2.5,2.7,1.7,4.4c-0.9,2-1.8,4.1-2.6,6.1
				C997.8,257.2,996.5,258,995.2,258L995.2,258z M1903,197.3c-1.1,0-2.3-0.6-2.9-1.6c-1.1-1.9-2.3-3.8-3.4-5.7
				c-1-1.6-0.5-3.6,1.1-4.6s3.6-0.5,4.6,1.1c1.2,1.9,2.3,3.8,3.5,5.8c0.9,1.6,0.4,3.6-1.2,4.6C1904.2,197.1,1903.6,197.3,1903,197.3
				z M1035.9,181.3c-0.6,0-1.2-0.2-1.8-0.5c-1.6-1-2-3.1-1-4.6c1.2-1.9,2.4-3.8,3.7-5.6c1-1.5,3.1-2,4.6-0.9c1.5,1,2,3.1,0.9,4.6
				c-1.2,1.8-2.4,3.7-3.6,5.6C1038.1,180.7,1037,181.3,1035.9,181.3L1035.9,181.3z M1852.5,126.7c-0.9,0-1.9-0.4-2.5-1.2
				c-1.4-1.7-2.9-3.4-4.3-5c-1.2-1.4-1.1-3.5,0.3-4.7s3.5-1.1,4.7,0.3c1.5,1.7,2.9,3.4,4.4,5.1c1.2,1.4,1,3.5-0.4,4.7
				C1854.1,126.5,1853.3,126.7,1852.5,126.7z M1089,112.6c-0.8,0-1.6-0.3-2.3-0.9c-1.4-1.2-1.5-3.4-0.2-4.7c1.5-1.7,3-3.3,4.6-4.9
				c1.3-1.3,3.4-1.4,4.7-0.1c1.3,1.3,1.4,3.4,0.1,4.7c-1.5,1.6-3,3.2-4.5,4.9C1090.8,112.2,1089.9,112.6,1089,112.6L1089,112.6z
				 M1790.9,65.7c-0.8,0-1.5-0.3-2.1-0.8l-5.1-4.2c-1.4-1.2-1.7-3.3-0.5-4.7s3.3-1.7,4.7-0.5c1.7,1.4,3.5,2.8,5.2,4.3
				c1.4,1.2,1.6,3.3,0.4,4.7C1792.8,65.3,1791.8,65.7,1790.9,65.7z M1152.8,53.9c-1,0-2-0.4-2.6-1.3c-1.1-1.5-0.9-3.6,0.6-4.7
				c1.8-1.4,3.6-2.7,5.3-4.1c1.5-1.1,3.6-0.8,4.7,0.7s0.8,3.6-0.7,4.7c-1.8,1.3-3.5,2.7-5.3,4C1154.3,53.6,1153.5,53.9,1152.8,53.9z
				 M1719.8,15.9c-0.6,0-1.1-0.1-1.7-0.5c-1.9-1.1-3.8-2.2-5.8-3.3c-1.6-0.9-2.2-2.9-1.3-4.6c0.9-1.6,2.9-2.2,4.6-1.3
				c2,1.1,3.9,2.2,5.9,3.3c1.6,0.9,2.1,3,1.2,4.6C1722,15.3,1720.9,15.9,1719.8,15.9L1719.8,15.9z M1225.7,6.8c-1.2,0-2.4-0.6-3-1.8
				c-0.9-1.6-0.2-3.7,1.4-4.5c2-1,4-2.1,5.9-3.1c1.6-0.8,3.7-0.2,4.5,1.4s0.2,3.7-1.4,4.5c-2,1-3.9,2-5.9,3.1
				C1226.7,6.7,1226.2,6.8,1225.7,6.8z M1641.2-21.1c-0.4,0-0.8-0.1-1.2-0.2c-2.1-0.8-4.2-1.5-6.3-2.3c-1.7-0.6-2.6-2.5-2-4.3
				c0.6-1.7,2.5-2.6,4.3-2c2.1,0.8,4.2,1.5,6.3,2.3c1.7,0.6,2.6,2.6,2,4.3C1643.8-21.9,1642.6-21.1,1641.2-21.1L1641.2-21.1z
				 M1305.5-27.2c-1.4,0-2.7-0.9-3.2-2.3c-0.6-1.8,0.4-3.6,2.1-4.2c2.1-0.7,4.3-1.4,6.4-2.1c1.8-0.6,3.6,0.4,4.2,2.2
				s-0.4,3.6-2.2,4.2c-2.1,0.7-4.2,1.3-6.3,2C1306.2-27.3,1305.8-27.2,1305.5-27.2z M1557.5-44.1c-0.2,0-0.4,0-0.6-0.1
				c-2.2-0.4-4.4-0.8-6.5-1.2c-1.8-0.3-3-2-2.7-3.9c0.3-1.8,2-3,3.9-2.7l6.6,1.2c1.8,0.3,3,2.1,2.7,3.9
				C1560.5-45.2,1559.1-44.1,1557.5-44.1z M1389.9-47.1c-1.6,0-3.1-1.2-3.3-2.9c-0.3-1.8,1-3.5,2.8-3.8l6.7-0.9
				c1.8-0.3,3.5,1,3.8,2.9c0.2,1.8-1,3.5-2.9,3.8l-6.6,0.9H1389.9z M1471.2-52.5C1471.2-52.5,1471.1-52.5,1471.2-52.5h-6.7
				c-1.8,0-3.3-1.5-3.3-3.3s1.5-3.3,3.3-3.3h6.7c1.8,0,3.3,1.5,3.3,3.4C1474.5-53.9,1473-52.5,1471.2-52.5z M1788.7,263.4l0.7,1.5
				l-46.3,21.4l-0.7-1.5L1788.7,263.4z"/>
		</g>
	</g>
	<path opacity="0.3" fill="#D37627" d="M1457.3,788.1c-193.1,0-350.3-157.1-350.3-350.3s157.1-350.3,350.3-350.3
		s350.3,157.1,350.3,350.3S1650.4,788.1,1457.3,788.1z M1457.3,131.1c-169.1,0-306.7,137.6-306.7,306.7s137.6,306.7,306.7,306.7
		S1764,606.9,1764,437.8S1626.4,131.1,1457.3,131.1z"/>
	<path opacity="0.3" fill="#D37627" d="M1457.3,913c-262,0-475.2-213.2-475.2-475.2s213.2-475.2,475.2-475.2
		s475.2,213.2,475.2,475.2S1719.3,913,1457.3,913z M1457.3,0.1c-241.4,0-437.8,196.4-437.8,437.8s196.4,437.8,437.8,437.8
		S1895,679.2,1895,437.8S1698.6,0.1,1457.3,0.1L1457.3,0.1z"/>
	<path fill="#E2E2E1" d="M1766.4,482.7c-3.9,3.7-9.9,3.8-13.3,0.2l-4.6-4.9c-3.4-3.6-3-9.6,0.9-13.3l2.4-2.3
		c3.9-3.7,9.9-3.8,13.3-0.2l4.6,4.9c3.4,3.6,3,9.6-0.9,13.3L1766.4,482.7z"/>
	<path fill="#FFFFFF" d="M1842.9,375.3l17.4,18.3l-92.8,88.4l-17.5-18.3L1842.9,375.3z"/>
	<path fill="#FFFFFF" d="M1843,375.5l20.8-2.7l-3.7,20.7"/>
	<path fill="#186585" d="M1864.5,372.2l-8.7,1.1l7.1,7.4"/>
	<path fill="#FFFFFF" d="M1846.8,378.9L1846.8,378.9L1846.8,378.9 M1856.9,389.5v-0.1V389.5"/>
	<path fill="#49586C" d="M1860.6,393.3l0.5-4.1l-4.5,0.6l-10.1-10.7l0.8-4.4l-4.1,0.3l-93.2,88.7l17.4,18.3L1860.6,393.3"/>
	<path fill="#667B95" d="M1856.5,389.7l-1.6-8.4l-8.3-2v-0.1l-92.9,88.4l10,10.5L1856.5,389.7"/>
	<path fill="#C7491B" d="M1243.7,764.7c0.3,0.2,0.7,0.4,1,0.4c0,0,1.8,0.2,3.6,0.2h2.4c0.7,0,1.1-0.1,1.1-0.1c0.7,0,1.4,0.3,1.7,0.9
		c0,0,0.2,0.2,0.4,0.6c0.2,0.4,0.6,0.8,1,1.3c0.7,0.9,1.5,1.8,1.5,1.8s0.8,0.8,1.6,1.7c0.4,0.4,0.8,0.8,1.2,1.1
		c0.3,0.3,0.6,0.5,0.6,0.5c0.5,0.4,0.8,1.1,0.7,1.8c0,0-0.1,0.4-0.2,1.1c-0.1,0.6-0.2,1.5-0.3,2.4l-0.2,3.6c0,0.4,0.1,0.7,0.3,1
		c0.2,0.3,0.5,0.6,0.9,0.8c0,0,0.3,0.2,0.9,0.5c0.5,0.3,1.2,0.7,1.9,1c1.5,0.6,2.9,1.2,2.9,1.2c0.8,0.4,1.7,0.2,2.2-0.2
		c0,0,1.4-1.2,2.7-2.4c1.3-1.2,2.4-2.5,2.4-2.5c0.4-0.5,1.2-0.7,1.8-0.6c0,0,1.1,0.3,2.3,0.3l2.3,0.2h2.3c1.2,0,2.3-0.1,2.3-0.1
		c0.7-0.1,1.4,0.2,1.8,0.8c0,0,1,1.5,2.2,2.8c1.1,1.3,2.4,2.6,2.4,2.6c0.5,0.5,1.4,0.7,2.2,0.5c0,0,1.5-0.5,3-0.9
		c0.7-0.3,1.5-0.6,2-0.8s0.9-0.4,0.9-0.4c0.4-0.2,0.7-0.4,1-0.7c0.2-0.3,0.4-0.7,0.4-1c0,0,0.2-1.8,0.2-3.6v-2.4
		c0-0.7-0.1-1.1-0.1-1.1c0-0.7,0.3-1.4,0.9-1.7c0,0,0.2-0.2,0.6-0.4s0.8-0.6,1.3-1c0.9-0.7,1.8-1.5,1.8-1.5s0.8-0.8,1.7-1.6
		c0.4-0.4,0.8-0.8,1.1-1.2c0.3-0.3,0.5-0.6,0.5-0.6c0.4-0.5,1.1-0.8,1.8-0.7c0,0,0.4,0.1,1.1,0.2c0.6,0.1,1.5,0.2,2.4,0.3l3.6,0.2
		c0.3,0,0.7-0.1,1-0.3s0.6-0.5,0.8-0.9c0,0,0.2-0.3,0.5-0.9c0.3-0.5,0.7-1.2,1-1.9c0.6-1.5,1.2-2.9,1.2-2.9c0.4-0.8,0.2-1.7-0.2-2.2
		c0,0-1.2-1.4-2.4-2.7c-1.2-1.3-2.5-2.4-2.5-2.4c-0.5-0.4-0.8-1.2-0.6-1.8c0,0,0.3-1.1,0.3-2.3l0.2-2.3v-2.3c0-1.2-0.1-2.3-0.1-2.3
		c-0.1-0.7,0.2-1.4,0.8-1.8c0,0,1.5-1,2.8-2.2c1.3-1.1,2.6-2.4,2.6-2.4c0.5-0.5,0.7-1.4,0.5-2.2c0,0-0.5-1.5-0.9-3
		c-0.3-0.7-0.6-1.5-0.8-2c-0.2-0.5-0.4-0.9-0.4-0.9c-0.2-0.4-0.4-0.7-0.7-1c-0.3-0.2-0.7-0.4-1-0.4c0,0-1.8-0.2-3.6-0.2h-2.4
		c-0.7,0-1.1,0.1-1.1,0.1c-0.7,0-1.4-0.3-1.7-0.9c0,0-0.2-0.2-0.4-0.6c-0.2-0.4-0.6-0.8-1-1.3c-0.7-0.9-1.5-1.8-1.5-1.8
		s-0.8-0.8-1.6-1.7c-0.4-0.4-0.8-0.8-1.2-1.1c-0.3-0.3-0.6-0.5-0.6-0.5c-0.5-0.4-0.8-1.1-0.7-1.8c0,0,0.1-0.4,0.2-1.1
		c0.1-0.6,0.2-1.5,0.3-2.4l0.2-3.6c0-0.3-0.1-0.7-0.3-1c-0.2-0.3-0.5-0.6-0.9-0.8c0,0-0.3-0.2-0.9-0.5c-0.5-0.3-1.2-0.7-1.9-1
		c-1.5-0.6-2.9-1.2-2.9-1.2c-0.8-0.4-1.7-0.2-2.2,0.2c0,0-1.4,1.2-2.7,2.4c-1.3,1.2-2.4,2.5-2.4,2.5c-0.4,0.5-1.2,0.8-1.8,0.6
		c0,0-1.1-0.3-2.3-0.3l-2.3-0.2h-2.3c-1.2,0-2.3,0.1-2.3,0.1c-0.7,0.1-1.4-0.2-1.8-0.8c0,0-1-1.5-2.2-2.8c-1.1-1.3-2.4-2.6-2.4-2.6
		c-0.5-0.5-1.4-0.7-2.2-0.5c0,0-1.5,0.5-3,0.9c-0.7,0.3-1.5,0.6-2,0.8s-0.9,0.4-0.9,0.4c-0.4,0.2-0.7,0.4-1,0.7
		c-0.2,0.3-0.4,0.7-0.4,1c0,0-0.2,1.8-0.2,3.6v2.4c0,0.7,0.1,1.1,0.1,1.1c0,0.7-0.3,1.4-0.9,1.7c0,0-0.2,0.2-0.6,0.4s-0.8,0.6-1.3,1
		c-0.9,0.7-1.8,1.5-1.8,1.5s-0.8,0.8-1.7,1.6c-0.4,0.4-0.8,0.8-1.1,1.2c-0.3,0.3-0.5,0.6-0.5,0.6c-0.4,0.5-1.1,0.8-1.8,0.7
		c0,0-0.4-0.1-1.1-0.2c-0.6-0.1-1.5-0.2-2.4-0.3l-3.6-0.2c-0.3,0-0.7,0.1-1,0.3s-0.6,0.5-0.8,0.9c0,0-0.2,0.3-0.5,0.9
		c-0.3,0.5-0.7,1.2-1,1.9c-0.6,1.5-1.2,2.9-1.2,2.9c-0.4,0.8-0.2,1.7,0.2,2.2c0,0,1.2,1.4,2.4,2.7c1.2,1.3,2.5,2.4,2.5,2.4
		c0.5,0.4,0.8,1.2,0.6,1.8c0,0-0.3,1.1-0.3,2.3l-0.2,2.3v2.3c0,1.2,0.1,2.3,0.1,2.3c0.1,0.7-0.2,1.4-0.8,1.8c0,0-1.5,1-2.8,2.2
		c-1.3,1.1-2.6,2.4-2.6,2.4c-0.5,0.5-0.7,1.4-0.5,2.2c0,0,0.5,1.5,0.9,3c0.3,0.7,0.6,1.5,0.8,2c0.2,0.5,0.4,0.9,0.4,0.9
		C1243.2,764.1,1243.4,764.4,1243.7,764.7z M1262.3,760.3c-0.3-0.4-0.5-0.8-0.8-1.2s-0.5-0.9-0.8-1.4c-0.1-0.2-0.3-0.5-0.4-0.8
		s-0.2-0.5-0.3-0.8c-0.2-0.5-0.5-1.1-0.7-1.7c-0.2-0.6-0.3-1.1-0.5-1.7l-0.1-0.4l-0.1-0.4c-0.1-0.3-0.1-0.6-0.2-0.8
		c-0.3-1.1-0.3-2.1-0.4-3c-0.1-0.4-0.1-0.9,0-1.2v-1v-0.8c0,0,0-0.3,0.1-0.8c0-0.3,0.1-0.6,0.1-0.9c0-0.4,0.1-0.8,0.2-1.2
		c0.2-0.9,0.3-1.9,0.7-3c0.1-0.3,0.2-0.5,0.2-0.8l0.1-0.4l0.2-0.4c0.2-0.5,0.5-1.1,0.7-1.6c0.3-0.5,0.6-1.1,0.8-1.6
		c0.1-0.3,0.3-0.5,0.4-0.8c0.2-0.2,0.3-0.5,0.5-0.7c0.3-0.5,0.6-0.9,0.9-1.3c0.3-0.4,0.6-0.8,0.9-1.1c0.1-0.2,0.3-0.3,0.4-0.5
		l0.4-0.4l0.7-0.7l0.6-0.6c0,0,0.2-0.2,0.6-0.5c0.2-0.2,0.5-0.4,0.7-0.6c0.1-0.1,0.3-0.2,0.4-0.4c0.2-0.1,0.4-0.2,0.5-0.4
		c0.4-0.3,0.8-0.5,1.2-0.8c0.4-0.3,0.9-0.5,1.4-0.8c0.2-0.1,0.5-0.3,0.8-0.4c0.3-0.1,0.5-0.2,0.8-0.3c0.5-0.2,1.1-0.5,1.7-0.7
		s1.1-0.3,1.7-0.5l0.4-0.1l0.4-0.1c0.3-0.1,0.6-0.1,0.8-0.2c1.1-0.3,2.1-0.3,3-0.4c0.4-0.1,0.9-0.1,1.2,0h1.8c0,0,0.3,0,0.8,0.1
		c0.3,0,0.6,0.1,0.9,0.1c0.4,0,0.8,0.1,1.2,0.2c0.9,0.2,1.9,0.3,3,0.7c0.3,0.1,0.5,0.2,0.8,0.3l0.4,0.1l0.4,0.2
		c0.5,0.2,1.1,0.5,1.6,0.7c0.5,0.3,1.1,0.6,1.6,0.8c0.3,0.1,0.5,0.3,0.8,0.4c0.2,0.2,0.5,0.3,0.7,0.5c0.5,0.3,0.9,0.6,1.3,0.9
		c0.4,0.3,0.8,0.6,1.1,0.9c0.2,0.1,0.3,0.3,0.5,0.4l0.4,0.4l0.7,0.7l0.6,0.6c0,0,0.2,0.2,0.5,0.6c0.2,0.2,0.4,0.5,0.6,0.7
		c0.1,0.1,0.2,0.3,0.4,0.4c0.1,0.2,0.2,0.4,0.4,0.5c0.3,0.4,0.5,0.8,0.8,1.2s0.5,0.9,0.8,1.4c0.1,0.2,0.3,0.5,0.4,0.8
		s0.2,0.5,0.3,0.8c0.2,0.5,0.5,1.1,0.7,1.7c0.2,0.6,0.3,1.1,0.5,1.7l0.1,0.4l0.1,0.4c0.1,0.3,0.1,0.6,0.2,0.8c0.3,1.1,0.3,2.1,0.4,3
		c0.1,0.4,0.1,0.9,0,1.2v1.8c0,0,0,0.3-0.1,0.8c0,0.3-0.1,0.6-0.1,0.9c0,0.4-0.1,0.8-0.2,1.2c-0.2,0.9-0.3,1.9-0.7,3
		c-0.1,0.3-0.2,0.5-0.3,0.8l-0.1,0.4l-0.2,0.4c-0.2,0.5-0.5,1.1-0.7,1.6c-0.3,0.5-0.6,1.1-0.8,1.6c-0.1,0.3-0.3,0.5-0.4,0.8
		c-0.2,0.2-0.3,0.5-0.5,0.7c-0.3,0.5-0.6,0.9-0.9,1.3c-0.3,0.4-0.6,0.8-0.9,1.1c-0.1,0.2-0.3,0.3-0.4,0.5l-0.4,0.4l-0.7,0.7
		l-0.6,0.6c0,0-0.2,0.2-0.6,0.5c-0.2,0.2-0.5,0.4-0.7,0.6c-0.1,0.1-0.3,0.2-0.4,0.4c-0.2,0.1-0.4,0.2-0.5,0.4
		c-0.4,0.3-0.8,0.5-1.2,0.8c-0.4,0.3-0.9,0.5-1.4,0.8c-0.2,0.1-0.5,0.3-0.8,0.4c-0.3,0.1-0.5,0.2-0.8,0.3c-0.5,0.2-1.1,0.5-1.7,0.7
		s-1.1,0.3-1.7,0.5l-0.4,0.1l-0.4,0.1c-0.3,0.1-0.6,0.1-0.8,0.2c-1.1,0.3-2.1,0.3-3,0.4c-0.4,0.1-0.9,0.1-1.2,0h-1.8
		c0,0-0.3,0-0.8-0.1c-0.3,0-0.6-0.1-0.9-0.1c-0.4,0-0.8-0.1-1.2-0.2c-0.9-0.2-1.9-0.3-3-0.7c-0.3-0.1-0.5-0.2-0.8-0.3l-0.4-0.1
		l-0.4-0.2c-0.5-0.2-1.1-0.5-1.6-0.7c-0.5-0.3-1.1-0.6-1.6-0.8c-0.3-0.1-0.5-0.3-0.8-0.4c-0.2-0.2-0.5-0.3-0.7-0.5
		c-0.5-0.3-0.9-0.6-1.3-0.9c-0.4-0.3-0.8-0.6-1.1-0.9c-0.2-0.1-0.3-0.3-0.5-0.4l-0.4-0.4l-0.7-0.7l-0.6-0.6c0,0-0.2-0.2-0.5-0.6
		c-0.2-0.2-0.4-0.5-0.6-0.7c-0.1-0.1-0.2-0.3-0.4-0.4C1262.5,760.7,1262.4,760.5,1262.3,760.3L1262.3,760.3z"/>
	<path fill="#49586C" d="M1636.3,717.6c-0.1,0.4,0,0.8,0.2,1.2c0,0,0.9,1.8,1.8,3.5c0.5,0.8,1,1.7,1.4,2.2c0.4,0.6,0.7,1,0.7,1
		c0.4,0.6,0.5,1.4,0.2,2.1c0,0-0.1,0.3-0.3,0.7c-0.2,0.4-0.4,1-0.7,1.6c-0.4,1.2-0.9,2.4-0.9,2.4s-0.3,1.2-0.6,2.5
		c-0.2,0.6-0.3,1.2-0.4,1.7s-0.1,0.8-0.1,0.8c-0.1,0.8-0.6,1.4-1.3,1.7c0,0-0.5,0.2-1.1,0.4c-0.6,0.3-1.5,0.7-2.4,1.1
		c-1.7,0.8-3.5,1.9-3.5,1.9c-0.3,0.2-0.6,0.5-0.8,0.9c-0.2,0.4-0.3,0.8-0.2,1.3v1.1c0,0.7,0,1.5,0.1,2.4c0.2,1.7,0.5,3.4,0.5,3.4
		c0.1,0.9,0.8,1.7,1.5,2c0,0,1.9,0.7,3.7,1.2c1.8,0.5,3.8,0.9,3.8,0.9c0.7,0.1,1.4,0.7,1.6,1.4c0,0,0.4,1.2,1,2.4
		c0.5,1.2,1.1,2.3,1.1,2.3s0.7,1.1,1.3,2.2c0.6,1.1,1.4,2.1,1.4,2.1c0.5,0.6,0.5,1.4,0.2,2.1c0,0-0.8,1.8-1.4,3.6s-1.1,3.8-1.1,3.8
		c-0.2,0.7,0.1,1.7,0.8,2.3c0,0,1.3,1.2,2.6,2.3c0.7,0.6,1.4,1.1,1.9,1.4c0.5,0.4,0.9,0.6,0.9,0.6c0.4,0.3,0.8,0.5,1.2,0.5
		c0.4,0.1,0.8,0,1.2-0.2c0,0,1.8-0.9,3.5-1.8c0.8-0.5,1.7-1,2.2-1.4c0.6-0.4,1-0.7,1-0.7c0.6-0.4,1.4-0.5,2.1-0.2
		c0,0,0.3,0.1,0.7,0.3c0.4,0.2,1,0.4,1.6,0.7c1.2,0.4,2.4,0.9,2.4,0.9s1.2,0.3,2.5,0.6c0.6,0.2,1.2,0.3,1.7,0.4
		c0.5,0.1,0.8,0.1,0.8,0.1c0.8,0.1,1.4,0.6,1.7,1.3c0,0,0.2,0.5,0.4,1.1c0.3,0.6,0.7,1.5,1.1,2.4c0.8,1.7,1.9,3.5,1.9,3.5
		c0.2,0.3,0.5,0.6,0.9,0.8s0.8,0.3,1.3,0.2h1.1c0.6,0,1.5,0,2.4-0.1c1.7-0.2,3.4-0.5,3.4-0.5c0.9-0.1,1.7-0.8,2-1.5
		c0,0,0.7-1.9,1.2-3.7s0.9-3.8,0.9-3.8c0.1-0.7,0.7-1.4,1.4-1.6c0,0,1.2-0.4,2.4-1c1.2-0.5,2.3-1.1,2.3-1.1s1.1-0.7,2.2-1.3
		s2.1-1.4,2.1-1.4c0.6-0.5,1.4-0.5,2.1-0.2c0,0,1.8,0.8,3.6,1.4c1.8,0.6,3.8,1.1,3.8,1.1c0.7,0.2,1.7-0.1,2.3-0.8
		c0,0,1.2-1.3,2.3-2.6c0.6-0.7,1.1-1.4,1.4-1.9c0.4-0.5,0.6-0.9,0.6-0.9c0.3-0.4,0.5-0.8,0.5-1.2c0.1-0.4,0-0.8-0.2-1.2
		c0,0-0.9-1.8-1.8-3.5c-0.5-0.8-1-1.7-1.4-2.2c-0.4-0.6-0.7-1-0.7-1c-0.4-0.6-0.5-1.4-0.2-2.1c0,0,0.1-0.3,0.3-0.7
		c0.2-0.4,0.4-1,0.7-1.6c0.4-1.2,0.9-2.4,0.9-2.4s0.3-1.2,0.6-2.5c0.2-0.6,0.3-1.2,0.4-1.7s0.1-0.8,0.1-0.8c0.1-0.8,0.6-1.4,1.3-1.7
		c0,0,0.5-0.2,1.1-0.4c0.6-0.3,1.5-0.7,2.4-1.1c1.7-0.8,3.5-1.9,3.5-1.9c0.3-0.2,0.6-0.5,0.8-0.9c0.2-0.4,0.3-0.8,0.2-1.3v-1.1
		c0-0.6,0-1.5-0.1-2.4c-0.2-1.7-0.5-3.4-0.5-3.4c-0.1-0.9-0.8-1.7-1.5-2c0,0-1.9-0.7-3.7-1.2c-1.8-0.5-3.8-0.9-3.8-0.9
		c-0.7-0.1-1.4-0.7-1.6-1.4c0,0-0.4-1.2-1-2.4c-0.5-1.2-1.1-2.3-1.1-2.3s-0.7-1.1-1.3-2.2c-0.6-1.1-1.4-2.1-1.4-2.1
		c-0.5-0.6-0.5-1.4-0.2-2.1c0,0,0.8-1.8,1.4-3.6s1.1-3.8,1.1-3.8c0.2-0.7-0.1-1.7-0.8-2.3c0,0-1.3-1.2-2.6-2.3
		c-0.7-0.6-1.4-1.1-1.9-1.4c-0.5-0.4-0.9-0.6-0.9-0.6c-0.4-0.3-0.8-0.5-1.2-0.5c-0.4-0.1-0.8,0-1.2,0.2c0,0-1.8,0.9-3.5,1.8
		c-0.8,0.5-1.7,1-2.2,1.4c-0.6,0.4-1,0.7-1,0.7c-0.6,0.4-1.4,0.5-2.1,0.2c0,0-0.3-0.1-0.7-0.3c-0.4-0.2-1-0.4-1.6-0.7
		c-1.2-0.4-2.4-0.9-2.4-0.9s-1.2-0.3-2.5-0.6c-0.6-0.2-1.2-0.3-1.7-0.4c-0.5-0.1-0.8-0.1-0.8-0.1c-0.8-0.1-1.4-0.6-1.7-1.3
		c0,0-0.2-0.5-0.4-1.1c-0.3-0.6-0.7-1.5-1.1-2.4c-0.8-1.7-1.9-3.5-1.9-3.5c-0.2-0.3-0.5-0.6-0.9-0.8s-0.8-0.3-1.3-0.2h-1.1
		c-0.6,0-1.5,0-2.4,0.1c-1.7,0.2-3.4,0.5-3.4,0.5c-0.9,0.1-1.7,0.8-2,1.5c0,0-0.7,1.9-1.2,3.7s-0.9,3.8-0.9,3.8
		c-0.1,0.7-0.7,1.4-1.4,1.6c0,0-1.2,0.4-2.4,1c-1.2,0.5-2.3,1.1-2.3,1.1s-1.1,0.7-2.2,1.3s-2.1,1.4-2.1,1.4
		c-0.6,0.5-1.4,0.5-2.1,0.2c0,0-1.8-0.8-3.6-1.4c-1.8-0.6-3.8-1.1-3.8-1.1c-0.7-0.2-1.7,0.1-2.3,0.8c0,0-1.2,1.3-2.3,2.6
		c-0.6,0.7-1.1,1.4-1.4,1.9c-0.4,0.5-0.6,0.9-0.6,0.9C1636.5,716.8,1636.4,717.2,1636.3,717.6z M1650.8,732.8
		c0.2-0.4,0.4-0.9,0.7-1.4c0.2-0.5,0.6-1,0.9-1.5c0.2-0.3,0.3-0.5,0.5-0.8s0.4-0.5,0.6-0.8c0.4-0.5,0.8-1.1,1.2-1.6
		c0.4-0.5,0.9-1,1.3-1.5l0.3-0.4l0.4-0.3c0.2-0.2,0.5-0.4,0.7-0.6c0.9-0.9,1.9-1.5,2.6-2.1c0.4-0.3,0.8-0.5,1.1-0.7
		c0.3-0.2,0.6-0.4,0.9-0.5c0.5-0.3,0.8-0.5,0.8-0.5s0.3-0.1,0.8-0.4c0.3-0.1,0.6-0.3,0.9-0.4c0.4-0.2,0.8-0.4,1.2-0.5
		c0.9-0.3,2-0.8,3.2-1c0.3-0.1,0.6-0.1,0.9-0.2l0.5-0.1l0.5-0.1l1.9-0.3c0.7-0.1,1.3,0,2-0.1h1c0.3,0,0.6,0,0.9,0.1
		c0.6,0.1,1.2,0,1.8,0.1c0.6,0.1,1.1,0.2,1.6,0.3c0.2,0,0.5,0.1,0.7,0.1c0.2,0.1,0.4,0.1,0.6,0.2c0.4,0.1,0.7,0.2,1,0.3
		c0.6,0.1,0.9,0.2,0.9,0.2l0.9,0.3c0.3,0.1,0.6,0.2,1,0.4c0.2,0.1,0.4,0.1,0.6,0.2l0.6,0.3c0.4,0.2,0.9,0.4,1.4,0.7
		c0.5,0.2,1,0.6,1.5,0.9c0.3,0.2,0.5,0.3,0.8,0.5s0.5,0.4,0.8,0.6c0.5,0.4,1.1,0.8,1.6,1.2s1,0.9,1.5,1.3l0.4,0.3l0.3,0.4
		c0.2,0.2,0.4,0.5,0.6,0.7c0.9,0.9,1.5,1.9,2.1,2.6c0.3,0.4,0.5,0.8,0.7,1.1s0.4,0.6,0.5,0.9c0.3,0.5,0.5,0.8,0.5,0.8
		s0.1,0.3,0.4,0.8c0.1,0.3,0.3,0.6,0.4,0.9c0.2,0.4,0.4,0.8,0.5,1.2c0.3,0.9,0.8,2,1,3.2c0.1,0.3,0.1,0.6,0.2,0.9l0.1,0.5l0.1,0.5
		l0.3,1.9c0.1,0.7,0,1.3,0.1,2v1c0,0.3,0,0.6-0.1,0.9c-0.1,0.6,0,1.2-0.1,1.8s-0.2,1.1-0.3,1.6c0,0.2-0.1,0.5-0.1,0.7
		c-0.1,0.2-0.1,0.4-0.2,0.6c-0.1,0.4-0.2,0.7-0.3,1c-0.1,0.6-0.2,0.9-0.2,0.9l-0.3,0.9c-0.1,0.3-0.2,0.6-0.4,1
		c-0.1,0.2-0.1,0.4-0.2,0.6l-0.3,0.6c-0.2,0.4-0.4,0.9-0.7,1.4c-0.2,0.5-0.6,1-0.9,1.5c-0.2,0.3-0.3,0.5-0.5,0.8s-0.4,0.5-0.6,0.8
		c-0.4,0.5-0.8,1.1-1.2,1.6c-0.4,0.5-0.9,1-1.3,1.5l-0.3,0.4l-0.4,0.3c-0.2,0.2-0.5,0.4-0.7,0.6c-0.9,0.9-1.9,1.5-2.6,2.1
		c-0.4,0.3-0.8,0.5-1.1,0.7c-0.3,0.2-0.6,0.4-0.9,0.5c-0.5,0.3-0.8,0.5-0.8,0.5s-0.3,0.1-0.8,0.4c-0.3,0.1-0.6,0.3-0.9,0.4
		c-0.4,0.2-0.8,0.4-1.2,0.5c-0.9,0.3-2,0.8-3.2,1c-0.3,0.1-0.6,0.1-0.9,0.2l-0.5,0.1l-0.5,0.1l-1.9,0.3c-0.7,0.1-1.3,0-2,0.1h-1
		c-0.3,0-0.6,0-0.9-0.1c-0.6-0.1-1.2,0-1.8-0.1c-0.6-0.1-1.1-0.2-1.6-0.3c-0.2,0-0.5-0.1-0.7-0.1c-0.2-0.1-0.4-0.1-0.6-0.2
		c-0.4-0.1-0.7-0.2-1-0.3c-0.6-0.1-0.9-0.2-0.9-0.2l-0.9-0.3c-0.3-0.1-0.6-0.2-1-0.4c-0.2-0.1-0.4-0.1-0.6-0.2l-0.6-0.3
		c-0.4-0.2-0.9-0.4-1.4-0.7c-0.5-0.2-1-0.6-1.5-0.9c-0.3-0.2-0.5-0.3-0.8-0.5s-0.5-0.4-0.8-0.6c-0.5-0.4-1.1-0.8-1.6-1.2
		s-1-0.9-1.5-1.3l-0.4-0.3l-0.3-0.4c-0.2-0.2-0.4-0.5-0.6-0.7c-0.9-0.9-1.5-1.9-2.1-2.6c-0.3-0.4-0.5-0.8-0.7-1.1s-0.4-0.6-0.5-0.9
		c-0.3-0.5-0.5-0.8-0.5-0.8s-0.1-0.3-0.4-0.8c-0.1-0.3-0.3-0.6-0.4-0.9c-0.2-0.4-0.4-0.8-0.5-1.2c-0.3-0.9-0.8-2-1-3.2
		c-0.1-0.3-0.1-0.6-0.2-0.9l-0.1-0.5l-0.1-0.5l-0.3-1.9c-0.1-0.7,0-1.3-0.1-2v-1c0-0.3,0-0.6,0.1-0.9c0.1-0.6,0-1.2,0.1-1.8
		s0.2-1.1,0.3-1.6c0-0.2,0.1-0.5,0.1-0.7c0.1-0.2,0.1-0.4,0.2-0.6c0.1-0.4,0.2-0.7,0.3-1c0.1-0.6,0.2-0.9,0.2-0.9l0.3-0.9
		c0.1-0.3,0.2-0.6,0.4-1c0.1-0.2,0.1-0.4,0.2-0.6L1650.8,732.8z M1139.9,744.5c0.6,0.2,1.2,0.1,1.7,0c0,0,2.7-0.9,5.2-2
		c1.3-0.5,2.5-1.1,3.4-1.5s1.5-0.8,1.5-0.8c0.9-0.5,2.1-0.4,3,0.1c0,0,0.4,0.2,1,0.6c0.6,0.4,1.4,0.8,2.2,1.2l3.2,1.6
		c0,0,1.7,0.7,3.4,1.3c0.8,0.3,1.7,0.7,2.4,0.8l1.1,0.3c1,0.3,1.9,1.1,2.1,2.2c0,0,0.2,0.7,0.4,1.7l1.1,3.6c0.9,2.6,2,5.2,2,5.2
		c0.2,0.5,0.6,1,1.1,1.3s1.1,0.5,1.8,0.6c0,0,0.6,0.1,1.5,0.1c0.9,0.1,2.1,0.2,3.4,0.2c2.5,0,4.9-0.1,4.9-0.1c1.4,0,2.5-0.8,3-1.7
		c0,0,1.3-2.5,2.3-5.1c1.1-2.5,1.9-5.2,1.9-5.2c0.3-1,1.2-1.8,2.3-2c0,0,1.8-0.3,3.5-1c1.7-0.6,3.5-1.1,3.5-1.1s1.7-0.7,3.3-1.5
		c1.7-0.7,3.3-1.6,3.3-1.6c1-0.5,2.1-0.5,3,0c0,0,2.4,1.5,4.8,2.6c2.4,1.2,5.1,2.3,5.1,2.3c1,0.4,2.4,0.2,3.4-0.7
		c0,0,1.9-1.6,3.7-3.2c0.9-0.8,1.7-1.8,2.4-2.4c0.6-0.7,1.1-1.1,1.1-1.1c0.5-0.5,0.8-1.1,1-1.6c0.2-0.6,0.1-1.2,0-1.7
		c0,0-0.9-2.7-1.9-5.2c-0.5-1.3-1.1-2.5-1.5-3.4s-0.8-1.5-0.8-1.5c-0.5-0.9-0.4-2.1,0.2-3c0,0,0.2-0.4,0.6-1s0.8-1.4,1.2-2.2
		c0.8-1.6,1.7-3.3,1.7-3.3s0.7-1.7,1.3-3.4c0.3-0.8,0.7-1.7,0.8-2.4l0.3-1.1c0.3-1.1,1.1-1.9,2.2-2.1c0,0,0.7-0.2,1.7-0.4l3.6-1.1
		c2.6-0.9,5.2-2,5.2-2c0.5-0.2,1-0.6,1.3-1.1s0.5-1.1,0.6-1.8c0,0,0.1-0.6,0.1-1.5c0.1-0.9,0.2-2.2,0.2-3.4v-4.9
		c0-1.4-0.8-2.5-1.7-3c0,0-2.5-1.3-5.1-2.3c-2.5-1.1-5.1-1.9-5.1-1.9c-1-0.3-1.8-1.2-2-2.2c0,0-0.3-1.8-0.9-3.5s-1.1-3.5-1.1-3.5
		s-0.7-1.7-1.4-3.3c-0.7-1.7-1.6-3.3-1.6-3.3c-0.5-1-0.5-2.1,0-3c0,0,1.5-2.4,2.6-4.8c1.2-2.5,2.3-5.1,2.3-5.1
		c0.4-1,0.2-2.4-0.7-3.4c0,0-1.6-1.9-3.2-3.7c-0.8-0.9-1.8-1.7-2.4-2.4c-0.7-0.6-1.1-1.1-1.1-1.1c-0.5-0.5-1.1-0.8-1.6-1
		c-0.6-0.2-1.2-0.1-1.7,0c0,0-2.7,0.9-5.2,2c-1.3,0.5-2.5,1.1-3.4,1.5s-1.5,0.8-1.5,0.8c-0.9,0.5-2.1,0.4-3-0.1c0,0-0.4-0.2-1-0.6
		c-0.6-0.4-1.4-0.8-2.2-1.2l-3.2-1.6c0,0-1.7-0.7-3.4-1.3c-0.8-0.3-1.7-0.7-2.4-0.8l-1.1-0.3c-1-0.3-1.9-1.1-2.1-2.2
		c0,0-0.2-0.7-0.4-1.7l-1.1-3.6c-0.9-2.6-2-5.2-2-5.2c-0.2-0.5-0.6-1-1.1-1.3s-1.1-0.5-1.8-0.6c0,0-0.6-0.1-1.5-0.1
		c-0.9-0.1-2.1-0.2-3.4-0.2c-2.5,0-4.9,0.1-4.9,0.1c-1.4,0-2.5,0.8-3,1.7c0,0-1.3,2.5-2.3,5.1c-1.1,2.5-1.9,5.2-1.9,5.2
		c-0.3,1-1.2,1.8-2.3,2c0,0-1.8,0.3-3.5,1c-1.7,0.6-3.5,1.1-3.5,1.1s-1.7,0.7-3.3,1.5c-1.7,0.7-3.3,1.6-3.3,1.6c-1,0.5-2.1,0.5-3,0
		c0,0-2.4-1.5-4.8-2.6c-2.4-1.2-5.1-2.3-5.1-2.3c-1-0.4-2.4-0.2-3.4,0.7c0,0-1.9,1.6-3.7,3.2c-0.9,0.8-1.7,1.8-2.4,2.4
		c-0.6,0.7-1.1,1.1-1.1,1.1c-0.5,0.5-0.8,1.1-1,1.6c-0.2,0.6-0.1,1.2,0,1.7c0,0,0.9,2.7,1.9,5.2c0.5,1.3,1.1,2.5,1.5,3.4
		s0.8,1.5,0.8,1.5c0.5,0.9,0.4,2.1-0.2,3c0,0-0.2,0.4-0.6,1s-0.8,1.4-1.2,2.2c-0.8,1.6-1.7,3.2-1.7,3.2s-0.7,1.7-1.3,3.4
		c-0.3,0.8-0.7,1.7-0.8,2.4l-0.3,1.1c-0.3,1.1-1.1,1.9-2.2,2.1c0,0-0.7,0.2-1.7,0.4l-3.6,1.1c-2.6,0.9-5.2,2-5.2,2
		c-0.5,0.2-1,0.6-1.3,1.1s-0.5,1.1-0.6,1.8c0,0-0.1,0.6-0.1,1.5c-0.1,0.9-0.2,2.2-0.2,3.4v4.9c0,1.4,0.8,2.5,1.7,3
		c0,0,2.5,1.3,5.1,2.3c2.5,1.1,5.1,1.9,5.1,1.9c1,0.3,1.8,1.2,2,2.2c0,0,0.3,1.8,0.9,3.5s1.1,3.5,1.1,3.5s0.7,1.7,1.4,3.3
		c0.7,1.7,1.6,3.3,1.6,3.3c0.5,1,0.5,2.1,0,3c0,0-1.5,2.4-2.6,4.8c-1.2,2.5-2.3,5.1-2.3,5.1c-0.4,1-0.2,2.4,0.7,3.4
		c0,0,1.6,1.9,3.2,3.7c0.8,0.9,1.8,1.7,2.4,2.4c0.7,0.6,1.1,1.1,1.1,1.1C1138.7,744,1139.3,744.3,1139.9,744.5z M1163.8,726.6
		c-0.6-0.4-1.2-0.8-1.9-1.2c-0.7-0.4-1.3-1-2-1.5c-0.3-0.3-0.7-0.5-1.1-0.8s-0.7-0.6-1-0.9c-0.6-0.6-1.4-1.3-2-1.9l-1.8-2.1
		l-0.5-0.5l-0.4-0.6l-0.8-1.1c-1.1-1.4-1.8-2.9-2.5-4.1c-0.4-0.6-0.6-1.2-0.8-1.7c-0.2-0.5-0.4-1-0.6-1.4c-0.3-0.8-0.5-1.2-0.5-1.2
		s-0.1-0.5-0.4-1.2c-0.1-0.4-0.3-0.9-0.5-1.4s-0.4-1.2-0.5-1.9c-0.2-1.4-0.7-3-0.8-4.7c-0.1-0.4-0.1-0.9-0.2-1.3l-0.1-0.7v-0.7v-2.8
		c0-0.9,0.2-1.9,0.2-2.8c0-0.5,0-0.9,0.1-1.4l0.3-1.3c0.2-0.9,0.3-1.7,0.5-2.5s0.4-1.5,0.6-2.2l0.3-1c0.1-0.3,0.2-0.6,0.3-0.8
		c0.2-0.5,0.4-1,0.6-1.4c0.3-0.8,0.5-1.2,0.5-1.2s0.2-0.4,0.6-1.1c0.2-0.4,0.4-0.8,0.7-1.3c0.1-0.3,0.3-0.5,0.4-0.8
		c0.2-0.3,0.4-0.6,0.6-0.8c0.4-0.6,0.8-1.2,1.2-1.9c0.4-0.7,1-1.3,1.5-2l0.8-1.1c0.3-0.4,0.6-0.7,0.9-1c0.7-0.7,1.3-1.4,1.9-2
		l2.1-1.8l0.5-0.5l0.6-0.4l1.1-0.8c1.4-1.1,2.9-1.8,4.1-2.5c0.6-0.4,1.2-0.6,1.7-0.8s1-0.4,1.4-0.6c0.8-0.3,1.2-0.5,1.2-0.5
		s0.5-0.1,1.2-0.4c0.4-0.1,0.9-0.3,1.4-0.5s1.2-0.4,1.8-0.5c1.4-0.3,3-0.7,4.7-0.8c0.4-0.1,0.9-0.1,1.3-0.2l0.7-0.1h3.5
		c0.9,0,1.9,0.2,2.8,0.2c0.5,0,0.9,0,1.4,0.1l1.3,0.3c0.9,0.2,1.7,0.3,2.5,0.5s1.5,0.4,2.2,0.6l1,0.3c0.3,0.1,0.6,0.2,0.8,0.3
		c0.5,0.2,1,0.4,1.4,0.5c0.8,0.3,1.2,0.5,1.2,0.5s0.4,0.2,1.1,0.6c0.4,0.2,0.8,0.4,1.3,0.7c0.3,0.1,0.5,0.3,0.8,0.4
		c0.3,0.2,0.5,0.4,0.8,0.6c0.6,0.4,1.2,0.8,1.9,1.2c0.7,0.4,1.3,1,2,1.5c0.3,0.3,0.7,0.5,1.1,0.8s0.7,0.6,1,0.9
		c0.6,0.7,1.4,1.3,2,1.9l1.8,2.1l0.5,0.5l0.4,0.6l0.8,1.1c1.1,1.4,1.8,2.9,2.5,4.1c0.4,0.6,0.6,1.2,0.8,1.7c0.2,0.5,0.4,1,0.6,1.4
		c0.3,0.8,0.5,1.2,0.5,1.2s0.1,0.5,0.4,1.2c0.1,0.4,0.3,0.9,0.5,1.4s0.4,1.2,0.5,1.9c0.2,1.4,0.7,3,0.8,4.7c0,0.4,0.1,0.9,0.2,1.3
		l0.1,0.7v3.5c0,0.9-0.2,1.9-0.2,2.8c0,0.5,0,0.9-0.1,1.4l-0.3,1.3c-0.2,0.9-0.3,1.7-0.5,2.5s-0.4,1.5-0.6,2.2l-0.3,1
		c-0.1,0.3-0.2,0.6-0.3,0.8c-0.2,0.5-0.4,1-0.6,1.4c-0.3,0.8-0.5,1.2-0.5,1.2s-0.2,0.4-0.6,1.1c-0.2,0.4-0.4,0.8-0.7,1.3
		c-0.1,0.3-0.3,0.5-0.4,0.8c-0.2,0.3-0.4,0.6-0.6,0.8c-0.4,0.6-0.8,1.2-1.2,1.9c-0.4,0.7-1,1.3-1.5,2c-0.3,0.3-0.5,0.7-0.8,1.1
		c-0.3,0.4-0.6,0.7-0.9,1c-0.7,0.7-1.3,1.4-1.9,2l-2.1,1.8l-0.5,0.5l-0.6,0.4l-1.1,0.8c-1.4,1.1-2.9,1.8-4.1,2.5
		c-0.6,0.4-1.2,0.6-1.7,0.8s-1,0.4-1.4,0.6c-0.8,0.3-1.2,0.5-1.2,0.5s-0.5,0.1-1.2,0.4c-0.4,0.1-0.9,0.3-1.4,0.5s-1.2,0.4-1.9,0.5
		c-1.4,0.3-3,0.7-4.7,0.8c-0.4,0.1-0.9,0.1-1.3,0.2l-0.7,0.1h-3.5c-0.9,0-1.9-0.2-2.8-0.2c-0.5,0-0.9,0-1.4-0.1l-1.3-0.3
		c-0.9-0.2-1.7-0.3-2.5-0.5s-1.5-0.4-2.2-0.6l-1-0.3c-0.3-0.1-0.6-0.2-0.8-0.3c-0.5-0.2-1-0.4-1.4-0.5c-0.8-0.3-1.2-0.5-1.2-0.5
		s-0.4-0.2-1.1-0.6c-0.4-0.2-0.8-0.4-1.3-0.7c-0.3-0.1-0.5-0.3-0.8-0.4C1164.4,727,1164.1,726.8,1163.8,726.6L1163.8,726.6z"/>
	<path fill="#C7491B" d="M1521.8,144.2c0.4,0.5,1,0.9,1.5,1c0,0,3,0.9,5.9,1.5c1.5,0.3,2.9,0.6,4,0.8s1.9,0.3,1.9,0.3
		c1.2,0.1,2.2,0.9,2.6,2c0,0,0.2,0.5,0.5,1.1c0.3,0.7,0.7,1.6,1.2,2.4c0.9,1.7,1.9,3.5,1.9,3.5s1.1,1.7,2.2,3.3
		c0.5,0.8,1.1,1.7,1.6,2.2c0.5,0.6,0.8,1,0.8,1c0.8,0.9,0.9,2.2,0.5,3.3c0,0-0.3,0.7-0.7,1.8c-0.4,1-0.8,2.4-1.2,3.9
		c-0.8,2.9-1.5,5.9-1.5,5.9c-0.1,0.6-0.1,1.2,0.2,1.9c0.3,0.6,0.7,1.2,1.3,1.6c0,0,0.5,0.4,1.3,1.1c0.8,0.6,1.8,1.5,2.9,2.3
		c2.2,1.5,4.5,3,4.5,3c1.2,0.9,2.8,0.9,3.8,0.3c0,0,2.7-1.5,5.3-3.1c2.5-1.5,4.9-3.4,4.9-3.4c0.9-0.7,2.2-0.9,3.3-0.4
		c0,0,1.8,0.8,3.7,1.3l3.8,1.2c0,0,1.9,0.4,3.9,0.8c1.9,0.5,3.9,0.6,3.9,0.6c1.2,0.1,2.2,0.9,2.7,1.9c0,0,1.2,2.8,2.7,5.3
		c1.4,2.6,3.2,5.2,3.2,5.2c0.6,1,2,1.7,3.5,1.5l5.4-0.6c1.3-0.2,2.7-0.5,3.6-0.7c1-0.2,1.7-0.3,1.7-0.3c0.7-0.2,1.4-0.5,1.9-0.9
		s0.9-1,1-1.5c0,0,0.9-3,1.5-5.9c0.3-1.5,0.6-2.9,0.8-4c0.2-1.1,0.3-1.8,0.3-1.8c0.1-1.1,0.9-2.2,2-2.6c0,0,0.5-0.2,1.1-0.5
		c0.7-0.3,1.6-0.7,2.5-1.2c1.8-0.9,3.5-1.9,3.5-1.9s1.7-1.1,3.3-2.2c0.8-0.5,1.7-1.1,2.2-1.6c0.6-0.5,1-0.8,1-0.8
		c0.9-0.8,2.2-1,3.3-0.5c0,0,0.7,0.3,1.8,0.6c1,0.4,2.4,0.8,3.9,1.2c2.9,0.8,5.9,1.5,5.9,1.5c0.6,0.1,1.2,0.1,1.9-0.2
		c0.6-0.3,1.2-0.7,1.7-1.3c0,0,0.4-0.5,1.1-1.3c0.6-0.8,1.5-1.8,2.3-2.9c1.5-2.2,3.1-4.4,3.1-4.4c0.9-1.2,0.9-2.8,0.3-3.8
		c0,0-1.5-2.7-3.1-5.2c-1.5-2.5-3.4-4.9-3.4-4.9c-0.7-0.9-0.9-2.2-0.4-3.3c0,0,0.8-1.8,1.3-3.7l1.2-3.8c0,0,0.4-1.9,0.8-3.9
		c0.5-1.9,0.6-3.9,0.6-3.9c0.1-1.2,0.9-2.2,1.9-2.7c0,0,2.8-1.2,5.4-2.7c2.6-1.4,5.2-3.2,5.2-3.2c1-0.7,1.7-2,1.5-3.5l-0.6-5.4
		c-0.2-1.3-0.5-2.6-0.7-3.6s-0.3-1.6-0.3-1.6c-0.1-0.7-0.5-1.4-0.9-1.9s-1-0.9-1.5-1c0,0-3-0.9-5.9-1.5c-1.5-0.3-2.9-0.6-4-0.8
		c-1.1-0.2-1.9-0.3-1.9-0.3c-1.2-0.1-2.2-0.9-2.6-2c0,0-0.2-0.5-0.5-1.1c-0.3-0.7-0.7-1.6-1.2-2.4c-0.9-1.7-1.9-3.5-1.9-3.5
		s-1.1-1.7-2.2-3.3c-0.5-0.8-1.1-1.7-1.6-2.2c-0.5-0.6-0.8-1-0.8-1c-0.8-0.9-0.9-2.2-0.5-3.3c0,0,0.3-0.7,0.7-1.8
		c0.4-1,0.8-2.4,1.2-3.9c0.8-2.9,1.5-5.9,1.5-5.9c0.1-0.6,0.1-1.2-0.2-1.9c-0.3-0.6-0.7-1.2-1.3-1.6c0,0-0.5-0.4-1.3-1.1
		c-0.8-0.6-1.8-1.5-2.9-2.3c-2.2-1.5-4.5-3-4.5-3c-1.2-0.9-2.8-0.9-3.8-0.3c0,0-2.7,1.5-5.3,3.1c-2.5,1.5-4.9,3.4-4.9,3.4
		c-0.9,0.7-2.2,0.9-3.3,0.4c0,0-1.8-0.8-3.7-1.3l-3.8-1.2c0,0-1.9-0.4-3.9-0.8c-1.9-0.5-3.9-0.6-3.9-0.6c-1.2-0.1-2.2-0.9-2.7-1.9
		c0,0-1.2-2.8-2.7-5.3c-1.4-2.6-3.2-5.2-3.2-5.2c-0.7-1-2-1.7-3.5-1.5l-5.4,0.6c-1.3,0.2-2.7,0.5-3.6,0.7c-1,0.2-1.7,0.3-1.7,0.3
		c-0.7,0.2-1.4,0.5-1.9,0.9s-0.9,1-1,1.5c0,0-0.9,3-1.5,5.9c-0.3,1.5-0.6,2.9-0.8,4c-0.2,1.1-0.3,1.9-0.3,1.9
		c-0.2,1.1-0.9,2.2-2,2.6c0,0-0.5,0.2-1.1,0.5c-0.7,0.3-1.6,0.7-2.5,1.2c-1.8,0.9-3.5,1.9-3.5,1.9s-1.7,1.1-3.3,2.2
		c-0.8,0.5-1.7,1.1-2.2,1.6c-0.6,0.5-1,0.8-1,0.8c-0.9,0.8-2.2,1-3.3,0.5c0,0-0.7-0.3-1.8-0.6c-1-0.4-2.4-0.8-3.9-1.2
		c-2.9-0.8-5.9-1.5-5.9-1.5c-0.6-0.1-1.2-0.1-1.9,0.2c-0.6,0.3-1.2,0.7-1.7,1.3c0,0-0.4,0.5-1.1,1.3c-0.6,0.8-1.5,1.8-2.3,2.9
		c-1.5,2.2-3.1,4.4-3.1,4.4c-0.9,1.2-0.9,2.8-0.3,3.8c0,0,1.5,2.7,3.1,5.2c1.5,2.5,3.4,4.9,3.4,4.9c0.7,0.9,0.9,2.2,0.4,3.3
		c0,0-0.8,1.8-1.3,3.7l-1.2,3.8c0,0-0.4,1.9-0.8,3.9c-0.5,1.9-0.6,3.9-0.6,3.9c-0.1,1.2-0.9,2.2-1.9,2.7c0,0-2.8,1.2-5.4,2.7
		c-2.6,1.4-5.2,3.2-5.2,3.2c-1,0.7-1.7,2-1.5,3.5l0.6,5.4c0.2,1.3,0.5,2.6,0.7,3.6s0.3,1.6,0.3,1.6
		C1521.1,143,1521.4,143.6,1521.8,144.2L1521.8,144.2z M1554.3,143.1c-0.3-0.7-0.6-1.5-1-2.3c-0.3-0.8-0.5-1.7-0.8-2.6
		c-0.1-0.5-0.3-0.9-0.4-1.4l-0.3-1.5l-0.6-3l-0.3-3l-0.1-0.7v-0.7v-1.5c-0.1-1.9,0.2-3.7,0.3-5.2c0-0.8,0.2-1.5,0.3-2.1
		c0.1-0.6,0.2-1.1,0.3-1.6l0.3-1.4c0,0,0.2-0.5,0.4-1.3c0.1-0.4,0.3-1,0.5-1.5c0.2-0.6,0.4-1.3,0.7-2c0.6-1.4,1.2-3.1,2.2-4.7
		c0.2-0.4,0.5-0.8,0.7-1.3l0.3-0.7l0.4-0.6c0.6-0.8,1.2-1.7,1.7-2.5c0.6-0.8,1.3-1.6,1.9-2.3c0.3-0.4,0.6-0.8,1-1.1
		c0.4-0.3,0.7-0.7,1.1-1c0.7-0.7,1.3-1.4,2-1.9l1.9-1.6c0.3-0.2,0.6-0.5,0.9-0.7s0.6-0.4,0.8-0.5c0.5-0.3,1-0.6,1.4-0.9
		c0.7-0.5,1.2-0.8,1.2-0.8s0.5-0.2,1.3-0.7c0.4-0.2,0.9-0.5,1.4-0.8c0.3-0.2,0.6-0.3,0.9-0.5c0.3-0.1,0.7-0.3,1-0.4
		c0.7-0.3,1.5-0.6,2.3-1c0.8-0.3,1.7-0.5,2.6-0.8c0.5-0.1,0.9-0.3,1.4-0.4l1.5-0.3l3-0.6l3-0.3l0.7-0.1h2.2c1.9-0.1,3.7,0.2,5.2,0.3
		c0.8,0,1.5,0.2,2.1,0.3c0.6,0.1,1.2,0.2,1.6,0.3l1.4,0.3c0,0,0.5,0.2,1.3,0.4c0.4,0.1,1,0.3,1.6,0.5s1.3,0.3,2,0.7
		c1.4,0.6,3.1,1.2,4.7,2.2c0.4,0.2,0.8,0.5,1.3,0.7l0.7,0.3l0.6,0.4c0.8,0.6,1.7,1.1,2.5,1.7s1.6,1.3,2.3,1.9c0.4,0.3,0.8,0.6,1.1,1
		c0.3,0.4,0.7,0.7,1,1c0.7,0.7,1.4,1.3,1.9,2l1.6,1.9c0.2,0.3,0.5,0.6,0.7,0.8c0.2,0.3,0.4,0.6,0.5,0.8c0.3,0.5,0.6,1,0.9,1.3
		c0.5,0.7,0.8,1.2,0.8,1.2s0.2,0.5,0.6,1.2c0.2,0.4,0.5,0.9,0.8,1.4c0.2,0.3,0.3,0.6,0.5,0.9c0.1,0.3,0.3,0.7,0.4,1
		c0.3,0.7,0.6,1.5,1,2.3c0.3,0.8,0.5,1.7,0.8,2.6c0.1,0.5,0.3,0.9,0.4,1.4l0.3,1.5l0.6,3l0.3,3l0.1,0.7v2.2c0.1,1.9-0.2,3.7-0.3,5.2
		c0,0.8-0.2,1.5-0.3,2.1c-0.1,0.6-0.2,1.1-0.3,1.6l-0.3,1.4c0,0-0.2,0.5-0.4,1.3c-0.1,0.4-0.3,1-0.5,1.5c-0.2,0.6-0.4,1.3-0.7,2
		c-0.6,1.4-1.2,3.1-2.2,4.7c-0.2,0.4-0.5,0.8-0.7,1.3l-0.3,0.7l-0.4,0.6c-0.6,0.8-1.2,1.7-1.7,2.5c-0.6,0.8-1.3,1.6-1.9,2.3
		c-0.3,0.4-0.6,0.8-1,1.1s-0.7,0.7-1.1,1c-0.7,0.7-1.3,1.4-2,1.9l-1.9,1.6c-0.3,0.2-0.6,0.5-0.9,0.7s-0.6,0.4-0.8,0.5
		c-0.5,0.3-1,0.6-1.4,0.9c-0.7,0.5-1.2,0.8-1.2,0.8s-0.5,0.2-1.3,0.7c-0.4,0.2-0.9,0.5-1.4,0.8c-0.3,0.2-0.6,0.3-0.9,0.5
		c-0.3,0.1-0.7,0.3-1,0.4c-0.7,0.3-1.5,0.6-2.3,1c-0.8,0.3-1.7,0.5-2.6,0.8c-0.5,0.1-0.9,0.3-1.4,0.4l-1.5,0.3l-3,0.6l-3,0.3
		l-0.7,0.1h-2.2c-1.9,0.1-3.7-0.2-5.2-0.3c-0.8,0-1.5-0.2-2.1-0.3s-1.2-0.2-1.6-0.3l-1.4-0.3c0,0-0.5-0.2-1.3-0.4
		c-0.4-0.1-1-0.3-1.6-0.5s-1.3-0.3-2-0.7c-1.4-0.6-3.1-1.2-4.7-2.2c-0.4-0.2-0.8-0.5-1.3-0.7l-0.7-0.3l-0.6-0.4
		c-0.8-0.6-1.7-1.1-2.5-1.7c-0.8-0.6-1.6-1.3-2.3-1.9c-0.4-0.3-0.8-0.6-1.1-1c-0.3-0.4-0.7-0.7-1-1c-0.7-0.7-1.4-1.3-1.9-2l-1.6-1.9
		c-0.2-0.3-0.5-0.6-0.7-0.8c-0.2-0.3-0.4-0.6-0.5-0.8c-0.3-0.5-0.6-1-0.9-1.3c-0.5-0.7-0.8-1.2-0.8-1.2s-0.2-0.5-0.6-1.2
		c-0.2-0.4-0.5-0.9-0.8-1.4c-0.2-0.3-0.3-0.6-0.5-0.9C1554.6,143.8,1554.5,143.5,1554.3,143.1L1554.3,143.1z"/>
	<path fill="#FBFBFB" d="M1127,175h87v131h-87V175z"/>
	<path fill="#C5D1D5" d="M1141,205h56v3h-56V205z M1141,223h56v5h-56V223z M1141,236h56v10h-56V236z M1141,274h56v5h-56V274z"/>
	<path fill="#186585" d="M1150,184.3c0,1.5-1.2,2.7-2.7,2.7h-1.6c-1.5,0-2.7-1.2-2.7-2.7v-14.6c0-1.5,1.2-2.7,2.7-2.7h1.6
		c1.5,0,2.7,1.2,2.7,2.7V184.3z M1175,184.3c0,1.5-1.2,2.7-2.7,2.7h-1.6c-1.5,0-2.7-1.2-2.7-2.7v-14.6c0-1.5,1.2-2.7,2.7-2.7h1.6
		c1.5,0,2.7,1.2,2.7,2.7V184.3z M1190,184.3c0,1.5-1.2,2.7-2.7,2.7h-1.6c-1.5,0-2.7-1.2-2.7-2.7v-14.6c0-1.5,1.2-2.7,2.7-2.7h1.6
		c1.5,0,2.7,1.2,2.7,2.7V184.3z M1200,184.3c0,1.5-1.2,2.7-2.7,2.7h-1.6c-1.5,0-2.7-1.2-2.7-2.7v-14.6c0-1.5,1.2-2.7,2.7-2.7h1.6
		c1.5,0,2.7,1.2,2.7,2.7V184.3z M1163,184.3c0,1.5-1.2,2.7-2.7,2.7h-1.6c-1.5,0-2.7-1.2-2.7-2.7v-14.6c0-1.5,1.2-2.7,2.7-2.7h1.6
		c1.5,0,2.7,1.2,2.7,2.7V184.3z"/>
	<g>
		<path fill="#F5DA50" d="M1900.2,414.7l12.4,19.3l-141.4,88l-12.5-19.3"/>
		<path fill="#E2A432" d="M1907.8,426.6l4.8,7.4l-141.4,88l-4.8-7.4"/>
		<path fill="none" stroke="#186585" stroke-linecap="round" stroke-linejoin="round" stroke-miterlimit="10" d="M1888.4,425.6
			l3.1,4.9 M1881,430.3l3.1,4.9 M1873.6,435l3.1,4.9 M1866.1,439.7l3.2,4.9 M1858.7,444.4l3.2,4.9 M1851.3,449.1l3.2,4.9
			 M1843.9,453.8l3.2,4.9 M1836.5,458.5l3.2,4.9 M1829.1,463.2l3.2,4.9 M1821.7,467.9l3.2,4.9 M1814.3,472.6l3.2,4.9 M1806.9,477.3
			l3.2,4.9 M1799.5,482l3.2,4.9 M1792.1,486.7l3.2,4.9 M1784.7,491.4l3.2,4.9 M1777.3,496.1l3.1,4.9"/>
	</g>
	<g>
		<circle fill="#E2E4E3" cx="1110.6" cy="485.8" r="99.3"/>
		<circle fill="#CACACA" cx="1110.6" cy="485.8" r="78.9"/>
		<circle fill="#381617" stroke="#FFFFFF" stroke-width="5" stroke-miterlimit="10" cx="1111.5" cy="484.9" r="48.3"/>
		
			<path fill="#CACACA" stroke="#FFFFFF" stroke-width="5" stroke-linecap="round" stroke-linejoin="round" stroke-miterlimit="10" d="
			M1147.6,517.1l18.2,16.2"/>
		<path opacity="0.4" fill="#E2A432" d="M1075.5,486.6c0.7-2.2,3-3.9,4.5-5.6c10-10.6,26.9-18,40.9-11.4c3.8,1.8,7.7,4.4,10.8,7.2
			c2.1,2,9.5,12,13,8.2c2.9-3.1,0.5-9.4-0.8-12.7c-2.9-7.6-7-14.4-14.7-17.9c-3.4-1.5-7.5-2.6-11.2-2.9
			c-13.1-1.3-26.6,0.7-34.4,12.3c-1.9,2.8-3.4,5.9-4.5,9.1C1077.6,477.4,1077,482.2,1075.5,486.6L1075.5,486.6z"/>
		<path opacity="0.2" fill="#E2A432" d="M1111.5,457c0,0,10.5-7,11.6,0C1123.6,460.4,1106.1,463.4,1111.5,457z M1106.3,454.5
			c0,0,5.6-3.7,6.2,0C1112.7,456.4,1103.4,458,1106.3,454.5z M1125,459.7c0,0,4.3-2.8,4.7,0C1129.9,461.1,1122.8,462.4,1125,459.7z"
			/>
		<path opacity="0.2" fill="#E2A432" d="M1119.8,462.3c0,0,4.3-2.8,4.7,0C1124.7,463.7,1117.6,464.9,1119.8,462.3z M1127.5,464.9
			c0,0,4.3-2.8,4.7,0C1132.5,466.3,1125.3,467.5,1127.5,464.9z"/>
	</g>
	
		<circle fill="none" stroke="#FFFFFF" stroke-width="3" stroke-linecap="round" stroke-linejoin="round" stroke-dasharray="10.0415,10.0415" cx="1457.8" cy="440.2" r="223.7"/>
	<g>
		<path fill="#FDFBFC" d="M1452.1,136.8c1.7,2.2,1.3,5.8-0.7,7.3l-60.6,46.2c-2,1.5-5.2,0.7-6.9-1.5l-85.1-111.5
			c-1.7-2.2-1.4-5.2,0.6-6.7l60.6-46.2c2-1.5,5.3-1.3,7,0.9L1452.1,136.8z"/>
		<path fill="#49586C" d="M1312.3,80.6l55.6-42.5l70.1,91.8l-55.7,42.5L1312.3,80.6z"/>
		<circle fill="#49586C" cx="1415.4" cy="159.4" r="6.3"/>
		<path fill="#49586C" d="M1345.9,46.8c0.4,0.6,0.3,1.4-0.2,1.8L1325.5,64c-0.6,0.4-1.4,0.3-1.8-0.2l-0.6-0.7
			c-0.4-0.6-0.3-1.4,0.2-1.8l20.2-15.4c0.6-0.4,1.4-0.3,1.8,0.2L1345.9,46.8L1345.9,46.8z"/>
		<path opacity="0.2" fill="#000002" d="M1370.2,41.1l11,129.8l1.2,1.6l55.7-42.5"/>
	</g>
	<g>
		<path fill="#FFFFFF" d="M1856,673.4c0,1.4-1.2,2.6-2.6,2.6h-112.8c-1.4,0-2.6-1.2-2.6-2.6v-59.8c0-1.4,1.2-2.6,2.6-2.6h112.8
			c1.4,0,2.6,1.2,2.6,2.6V673.4z"/>
		<path fill="#381617" d="M1738,619h115v7h-115V619z"/>
		<circle fill="#D06759" cx="1839" cy="656.2" r="9.6"/>
		<circle fill="#F5DA50" cx="1826.8" cy="656.2" r="9.6"/>
		<path fill="#CACACA" d="M1743,636h47v4h-47V636z M1790,636h21v4h-21V636z"/>
	</g>
	<g>
		<path fill="#F7EAC7" d="M1816,309.3c0,1.5-1.2,2.7-2.7,2.7h-93.6c-1.5,0-2.7-1.2-2.7-2.7v-93.6c0-1.5,1.2-2.7,2.7-2.7h93.6
			c1.5,0,2.7,1.2,2.7,2.7V309.3z"/>
		<path fill="#FFFFFF" d="M1810,289.3c0,1.5-1.2,2.7-2.7,2.7h-79.6c-1.5,0-2.7-1.2-2.7-2.7v-65.6c0-1.5,1.2-2.7,2.7-2.7h79.6
			c1.5,0,2.7,1.2,2.7,2.7V289.3z M1816.7,214.4c0,1.2-0.8,2.2-1.8,2.2h-94.6c-1,0-1.8-1-1.8-2.2V202c0-1.2,0.8-2.2,1.8-2.2h94.6
			c1,0,1.8,1,1.8,2.2V214.4z"/>
		<g>
			<circle fill="#D06759" cx="1755.1" cy="209.6" r="3.2"/>
			<circle fill="#D06759" cx="1778" cy="209.6" r="3.2"/>
		</g>
		<path fill="#B4CCD4" d="M1730,232h19v16h-19V232z M1752,232h20v16h-20V232z M1752,250h20v13h-20V250z M1779,232h18v16h-18V232z
			 M1779,250h18v13h-18V250z M1730,250h19v13h-19V250z M1752,263h20v18h-20V263z M1730,263h19v18h-19V263z"/>
	</g>
	<g>
		<path fill="#C7491B" d="M1226,570.6V303.4c0-5.7,4.6-10.3,10.3-10.3H1674c5.7,0,10.3,4.6,10.3,10.3v267.3L1226,570.6L1226,570.6z"
			/>
		<path fill="#FFFFFF" d="M1674,612h-437.7c-5.7,0-10.3-4.6-10.3-10.3v-31h458.4v31C1684.4,607.3,1679.7,612,1674,612z"/>
		<path fill="#FFFFFF" d="M1382.2,666v-5.7l18.1-2.2l12.5-47.6h92.5l12.5,47.6l18.1,2.2v5.7H1382.2z M1670.2,311.1v241.4h-430V311.1
			H1670.2z"/>
		<path opacity="8.000000e-002" fill="#3E3F3F" d="M1411.1,619.5l1.7-9h92.5l1.7,9H1411.1L1411.1,619.5z"/>
	</g>
	<g>
		<g>
			<defs>
				<rect id="SVGID_1_" x="1240.4" y="313.3" width="430.5" height="241.4"/>
			</defs>
			<clipPath id="SVGID_2_">
				<use xlink:href="#SVGID_1_"  overflow="visible"/>
			</clipPath>
			<g clip-path="url(#SVGID_2_)">
				<path fill="#F1F7FD" d="M1240.4,313.3H1671l-0.4,608.8H1240"/>
				<path fill="#C7491B" d="M1265.2,337.4h118.9v20.1h-119"/>
				<path fill="#7BBBE8" d="M1265.1,373.8h374.7l-0.1,68.9h-374.6"/>
				<path fill="#FFFFFF" d="M1278.7,401.3c0.4-0.4,1-0.4,1.4,0s0.4,1,0,1.4l-5.4,5.5l5.4,5.5c0.4,0.4,0.4,1,0,1.4s-1,0.4-1.4,0
					l-6.1-6.2L1278.7,401.3L1278.7,401.3z M1626.2,401.3c-0.4-0.4-1-0.4-1.4,0s-0.4,1,0,1.4l5.4,5.5l-5.4,5.5c-0.4,0.4-0.4,1,0,1.4
					s1,0.4,1.4,0l6.1-6.2L1626.2,401.3L1626.2,401.3z"/>
				<path fill="#EDC73F" d="M1265.1,459.4h109.4v19.5h-109.4"/>
				<path fill="#7BBBE8" d="M1397.7,459.4h109.4v19.5h-109.4"/>
				<path fill="#C7491B" d="M1530.3,459.4h109.4v19.5h-109.4 M1265.1,488.7h109.4v66.9H1265"/>
				<path fill="#EDC73F" d="M1397.7,488.7h109.4v66.9h-109.5"/>
				<path fill="#7BBBE8" d="M1530.3,488.7h109.4v66.9h-109.5"/>
				<path fill="#EDC73F" d="M1628.1,337.4h11.7v8h-11.7"/>
				<path fill="#7BBBE8" d="M1610,337.4h11.8v8H1610"/>
				<path fill="#5987B8" d="M1592,337.4h11.8v8H1592"/>
				<path fill="#C7491B" d="M1574,337.4h11.8v8H1574"/>
				<path fill="#93B6E1" d="M1265,577.6h100v13.6h-100 M1265,602.5h374.6V616H1265 M1265,627.6h374.6v13.6H1265 M1265,652.8h374.6
					v13.6H1265 M1264.9,678h374.7v13.5h-374.7 M1264.9,703.1h374.7v13.6h-374.7 M1264.9,728.3h374.7v13.5h-374.7 M1264.9,753.4
					h374.7l-0.1,13.6h-374.6 M1264.9,823.2h242v75.1h-242.1"/>
				<path fill="#E4AA2E" d="M1264.9,791.9h109.4v19.5h-109.4"/>
				<path fill="#C47B65" d="M1530.1,791.9h109.4v19.5h-109.4"/>
				<path fill="#E4AA2E" d="M1530.1,823.2h109.4v75.1H1530"/>
			</g>
		</g>
	</g>
</g>
</svg>
