<svg version="1.1"
	 xmlns="http://www.w3.org/2000/svg" xmlns:xlink="http://www.w3.org/1999/xlink" xmlns:a="http://ns.adobe.com/AdobeSVGViewerExtensions/3.0/"
	 x="0px" y="0px" width="232.7px" height="52.5px" viewBox="0 0 232.7 52.5" enable-background="new 0 0 232.7 52.5"
	 xml:space="preserve">
<g>
	<g>
		<path fill="#FFFFFF" d="M0,12.5V0.1h2.9c0.7,0,1.4,0.1,1.9,0.2C5.3,0.5,5.7,0.8,6,1.1c0.3,0.3,0.5,0.7,0.6,1.2
			c0.1,0.5,0.2,1,0.2,1.7v4.5c0,0.7-0.1,1.3-0.2,1.8c-0.1,0.5-0.3,0.9-0.6,1.3c-0.3,0.3-0.7,0.6-1.2,0.8c-0.5,0.2-1.1,0.2-1.8,0.2H0
			z M2.3,10.9h0.6c0.2,0,0.4,0,0.6-0.1c0.2,0,0.3-0.1,0.4-0.1c0.1-0.1,0.2-0.1,0.3-0.3s0.1-0.2,0.2-0.3c0-0.1,0.1-0.3,0.1-0.5
			s0-0.4,0-0.5c0-0.1,0-0.4,0-0.7V3.9c0-0.3,0-0.5,0-0.7c0-0.2,0-0.4-0.1-0.5c0-0.2-0.1-0.3-0.2-0.4C4.2,2.1,4.1,2.1,4,2
			C3.9,1.9,3.7,1.8,3.5,1.8c-0.2,0-0.4,0-0.6,0H2.3V10.9z"/>
		<path fill="#FFFFFF" d="M9,12.5V0.1h5.2v1.6h-2.9v3.6h2.3v1.6h-2.3V11h3v1.6H9z"/>
		<path fill="#FFFFFF" d="M19.4,12.7c-2.2,0-3.3-1.3-3.4-3.8l2-0.4c0,1.6,0.5,2.5,1.4,2.5c0.3,0,0.6-0.1,0.8-0.3
			c0.2-0.2,0.3-0.5,0.3-0.8c0-0.3-0.1-0.7-0.2-0.9c-0.1-0.3-0.3-0.5-0.4-0.7C19.5,8,19.3,7.7,19,7.5L17.4,6
			c-0.5-0.4-0.8-0.9-1.1-1.3s-0.4-1-0.4-1.7c0-1,0.3-1.7,0.8-2.2C17.4,0.3,18.1,0,19.1,0c0.5,0,0.9,0.1,1.2,0.2
			c0.3,0.1,0.6,0.3,0.9,0.5s0.4,0.4,0.6,0.7C21.9,1.7,22,2,22.1,2.3c0.1,0.3,0.1,0.7,0.2,1.1l-1.9,0.4c0-0.2,0-0.5,0-0.6
			c0-0.2-0.1-0.4-0.1-0.6c-0.1-0.2-0.1-0.3-0.2-0.5c-0.1-0.1-0.2-0.2-0.4-0.3s-0.3-0.1-0.5-0.1c-0.3,0-0.6,0.1-0.8,0.3
			s-0.3,0.5-0.3,0.8c0,0.4,0.1,0.7,0.2,1s0.4,0.5,0.7,0.8L20.6,6c0.3,0.2,0.5,0.5,0.7,0.7c0.2,0.2,0.4,0.5,0.6,0.8
			c0.2,0.3,0.3,0.6,0.4,1c0.1,0.4,0.1,0.7,0.1,1.1c0,0.9-0.3,1.6-0.9,2.2C21,12.4,20.3,12.7,19.4,12.7z"/>
		<path fill="#FFFFFF" d="M24.4,12.5V0.1h5.2v1.6h-2.9v3.6H29v1.6h-2.3V11h3v1.6H24.4z"/>
		<path fill="#FFFFFF" d="M31.6,12.5V0.1h1.6l3,7v-7h1.9v12.4h-1.5l-3.1-7.4v7.4H31.6z"/>
		<path fill="#FFFFFF" d="M42.5,12.5L40,0.1h2l1.6,8.6l1.5-8.6h2l-2.5,12.4H42.5z"/>
		<path fill="#FFFFFF" d="M52.4,12.7c-1.3,0-2.2-0.3-2.7-1c-0.6-0.7-0.8-1.7-0.8-3V4c0-0.7,0.1-1.2,0.2-1.7c0.1-0.5,0.3-0.9,0.6-1.3
			s0.6-0.6,1.1-0.8c0.5-0.2,1-0.3,1.7-0.3c1.3,0,2.2,0.3,2.7,1C55.7,1.7,56,2.7,56,4v4.6c0,0.6-0.1,1.2-0.2,1.7
			c-0.1,0.5-0.3,0.9-0.6,1.3c-0.3,0.4-0.6,0.6-1.1,0.8C53.6,12.6,53,12.7,52.4,12.7z M51.8,10.9C52,11,52.2,11,52.4,11
			s0.4,0,0.6-0.1c0.2-0.1,0.3-0.1,0.4-0.3c0.1-0.1,0.2-0.2,0.2-0.4c0.1-0.2,0.1-0.3,0.1-0.5c0-0.2,0-0.4,0-0.6V3.5
			c0-0.3,0-0.5,0-0.7c0-0.2-0.1-0.4-0.2-0.6S53.2,1.9,53,1.8c-0.2-0.1-0.4-0.1-0.7-0.1c-0.3,0-0.5,0-0.7,0.1
			c-0.2,0.1-0.3,0.2-0.4,0.4c-0.1,0.2-0.1,0.4-0.2,0.6c0,0.2,0,0.4,0,0.7v5.6c0,0.2,0,0.4,0,0.6c0,0.2,0.1,0.3,0.1,0.5
			c0.1,0.2,0.1,0.3,0.2,0.4C51.5,10.8,51.7,10.8,51.8,10.9z"/>
		<path fill="#FFFFFF" d="M58.1,12.5V0.1h2.3V11h3v1.6H58.1z"/>
		<path fill="#FFFFFF" d="M66.4,12.5L63.9,0.1h2l1.6,8.6l1.5-8.6h2l-2.5,12.4H66.4z"/>
		<path fill="#FFFFFF" d="M73.1,12.5V0.1h5.2v1.6h-2.9v3.6h2.3v1.6h-2.3V11h3v1.6H73.1z"/>
		<path fill="#FFFFFF" d="M80.2,12.5V0.1h2.9c0.7,0,1.4,0.1,1.9,0.2c0.5,0.1,0.9,0.4,1.2,0.7c0.3,0.3,0.5,0.7,0.6,1.2
			C87,2.7,87,3.3,87,4v4.5c0,0.7-0.1,1.3-0.2,1.8c-0.1,0.5-0.3,0.9-0.6,1.3c-0.3,0.3-0.7,0.6-1.2,0.8c-0.5,0.2-1.1,0.2-1.8,0.2H80.2
			z M82.5,10.9h0.6c0.2,0,0.4,0,0.6-0.1c0.2,0,0.3-0.1,0.4-0.1c0.1-0.1,0.2-0.1,0.3-0.3s0.1-0.2,0.2-0.3c0-0.1,0.1-0.3,0.1-0.5
			s0-0.4,0-0.5c0-0.1,0-0.4,0-0.7V3.9c0-0.3,0-0.5,0-0.7c0-0.2,0-0.4-0.1-0.5c0-0.2-0.1-0.3-0.2-0.4c-0.1-0.1-0.2-0.2-0.3-0.3
			c-0.1-0.1-0.3-0.1-0.4-0.2c-0.2,0-0.4,0-0.6,0h-0.6V10.9z"/>
		<path fill="#FFFFFF" d="M92.7,12.7c-1.3,0-2.2-0.3-2.7-1c-0.6-0.7-0.8-1.7-0.8-3V4c0-0.7,0.1-1.2,0.2-1.7c0.1-0.5,0.3-0.9,0.6-1.3
			s0.6-0.6,1.1-0.8C91.4,0.1,92,0,92.7,0c1.3,0,2.2,0.3,2.7,1c0.6,0.7,0.8,1.7,0.8,3v4.6c0,0.6-0.1,1.2-0.2,1.7
			c-0.1,0.5-0.3,0.9-0.6,1.3c-0.3,0.4-0.6,0.6-1.1,0.8C93.9,12.6,93.3,12.7,92.7,12.7z M92.1,10.9c0.2,0.1,0.3,0.1,0.6,0.1
			s0.4,0,0.6-0.1c0.2-0.1,0.3-0.1,0.4-0.3c0.1-0.1,0.2-0.2,0.2-0.4c0.1-0.2,0.1-0.3,0.1-0.5c0-0.2,0-0.4,0-0.6V3.5
			c0-0.3,0-0.5,0-0.7c0-0.2-0.1-0.4-0.2-0.6s-0.2-0.3-0.4-0.4c-0.2-0.1-0.4-0.1-0.7-0.1c-0.3,0-0.5,0-0.7,0.1
			c-0.2,0.1-0.3,0.2-0.4,0.4c-0.1,0.2-0.1,0.4-0.2,0.6c0,0.2,0,0.4,0,0.7v5.6c0,0.2,0,0.4,0,0.6c0,0.2,0.1,0.3,0.1,0.5
			c0.1,0.2,0.1,0.3,0.2,0.4C91.8,10.8,91.9,10.8,92.1,10.9z"/>
		<path fill="#FFFFFF" d="M98.4,12.5V0.1h2.8c0.7,0,1.2,0.1,1.7,0.2s0.9,0.3,1.2,0.5c0.3,0.3,0.6,0.6,0.8,1s0.3,1,0.3,1.6
			c0,0.8-0.1,1.4-0.3,1.9c-0.2,0.5-0.6,0.9-1.1,1.1l1.7,6.1h-2.3l-1.5-5.7h-1v5.7H98.4z M100.7,5.4h0.5c0.7,0,1.1-0.1,1.4-0.4
			c0.3-0.3,0.4-0.8,0.4-1.5c0-0.7-0.1-1.1-0.4-1.4c-0.2-0.3-0.7-0.4-1.3-0.4h-0.7V5.4z"/>
	</g>
	<g>
		<path fill="#FFFFFF" d="M111.8,12.5L112,0.1h2.3l1.8,8.7l1.8-8.7h2.3l0.2,12.4h-1.7L118.6,4l-1.8,8.5h-1.3L113.7,4l-0.1,8.6H111.8
			z"/>
		<path fill="#FFFFFF" d="M126.1,12.7c-0.6,0-1-0.1-1.4-0.2s-0.7-0.3-1-0.5s-0.5-0.5-0.6-0.9c-0.2-0.4-0.3-0.8-0.3-1.2
			c-0.1-0.4-0.1-0.9-0.1-1.5V0.1h2.2v8.5c0,0.3,0,0.5,0,0.7s0,0.4,0.1,0.6s0.1,0.4,0.2,0.5c0.1,0.1,0.2,0.2,0.4,0.3
			c0.2,0.1,0.4,0.1,0.6,0.1s0.4,0,0.6-0.1c0.2-0.1,0.3-0.2,0.4-0.3c0.1-0.1,0.2-0.3,0.2-0.5s0.1-0.4,0.1-0.6s0-0.4,0-0.7V0.1h2.2
			v8.2c0,0.6,0,1.1-0.1,1.5c-0.1,0.4-0.2,0.8-0.3,1.2s-0.4,0.7-0.6,0.9s-0.6,0.4-1,0.5C127.1,12.6,126.6,12.7,126.1,12.7z"/>
		<path fill="#FFFFFF" d="M131.8,12.5V0.1h2.3V11h3v1.6H131.8z"/>
		<path fill="#FFFFFF" d="M139.5,12.5V1.8h-2.1V0.1h6.3v1.7h-2v10.7H139.5z"/>
		<path fill="#FFFFFF" d="M145.6,12.5V0.1h2.2v12.4H145.6z"/>
		<path fill="#FFFFFF" d="M150.2,12.5V0.1h3.6c2.1,0,3.2,1.2,3.2,3.5c0,1.1-0.3,2-0.9,2.5c-0.6,0.5-1.4,0.8-2.4,0.8h-1.2v5.5H150.2z
			 M152.5,5.4h0.7c0.6,0,1.1-0.1,1.3-0.4c0.2-0.3,0.3-0.7,0.3-1.4c0-0.4,0-0.7,0-0.9c0-0.2-0.1-0.4-0.2-0.6
			c-0.1-0.2-0.3-0.3-0.5-0.4c-0.2-0.1-0.5-0.1-0.9-0.1h-0.7V5.4z"/>
		<path fill="#FFFFFF" d="M158.8,12.5V0.1h2.3V11h3v1.6H158.8z"/>
		<path fill="#FFFFFF" d="M165.7,12.5l2.5-12.4h2.4l2.5,12.4h-2.1l-0.5-2.9h-2.1l-0.5,2.9H165.7z M168.5,8.2h1.7l-0.8-5.1L168.5,8.2
			z"/>
		<path fill="#FFFFFF" d="M175.6,12.5V1.8h-2.1V0.1h6.3v1.7h-2v10.7H175.6z"/>
		<path fill="#FFFFFF" d="M180.3,12.5l2.5-12.4h2.4l2.5,12.4h-2.1l-0.5-2.9H183l-0.5,2.9H180.3z M183.2,8.2h1.7L184,3.1L183.2,8.2z"
			/>
		<path fill="#FFFFFF" d="M189.6,12.5V0.1h5.1v1.6h-2.8v3.6h2.3v1.6h-2.3v5.6H189.6z"/>
		<path fill="#FFFFFF" d="M199.9,12.7c-1.3,0-2.2-0.3-2.7-1c-0.6-0.7-0.8-1.7-0.8-3V4c0-0.7,0.1-1.2,0.2-1.7
			c0.1-0.5,0.3-0.9,0.6-1.3s0.6-0.6,1.1-0.8c0.5-0.2,1-0.3,1.7-0.3c1.3,0,2.2,0.3,2.7,1c0.6,0.7,0.8,1.7,0.8,3v4.6
			c0,0.6-0.1,1.2-0.2,1.7c-0.1,0.5-0.3,0.9-0.6,1.3c-0.3,0.4-0.6,0.6-1.1,0.8S200.6,12.7,199.9,12.7z M199.4,10.9
			c0.2,0.1,0.3,0.1,0.6,0.1c0.2,0,0.4,0,0.6-0.1c0.2-0.1,0.3-0.1,0.4-0.3c0.1-0.1,0.2-0.2,0.2-0.4c0.1-0.2,0.1-0.3,0.1-0.5
			c0-0.2,0-0.4,0-0.6V3.5c0-0.3,0-0.5,0-0.7c0-0.2-0.1-0.4-0.2-0.6c-0.1-0.2-0.2-0.3-0.4-0.4c-0.2-0.1-0.4-0.1-0.7-0.1
			c-0.3,0-0.5,0-0.7,0.1c-0.2,0.1-0.3,0.2-0.4,0.4c-0.1,0.2-0.1,0.4-0.2,0.6c0,0.2,0,0.4,0,0.7v5.6c0,0.2,0,0.4,0,0.6
			c0,0.2,0.1,0.3,0.1,0.5c0.1,0.2,0.1,0.3,0.2,0.4C199.1,10.8,199.2,10.8,199.4,10.9z"/>
		<path fill="#FFFFFF" d="M205.7,12.5V0.1h2.8c0.7,0,1.2,0.1,1.7,0.2s0.9,0.3,1.2,0.5c0.3,0.3,0.6,0.6,0.8,1c0.2,0.4,0.3,1,0.3,1.6
			c0,0.8-0.1,1.4-0.3,1.9s-0.6,0.9-1.1,1.1l1.7,6.1h-2.3l-1.5-5.7h-1v5.7H205.7z M207.9,5.4h0.5c0.7,0,1.1-0.1,1.4-0.4
			c0.3-0.3,0.4-0.8,0.4-1.5c0-0.7-0.1-1.1-0.4-1.4c-0.2-0.3-0.7-0.4-1.3-0.4h-0.7V5.4z"/>
		<path fill="#FFFFFF" d="M214.7,12.5l0.2-12.4h2.3l1.8,8.7l1.8-8.7h2.3l0.2,12.4h-1.7L221.5,4l-1.8,8.5h-1.3L216.6,4l-0.1,8.6
			H214.7z"/>
		<path fill="#FFFFFF" d="M225.3,12.5l2.5-12.4h2.4l2.5,12.4h-2.1l-0.5-2.9h-2.1l-0.5,2.9H225.3z M228.1,8.2h1.7L229,3.1L228.1,8.2z
			"/>
	</g>
</g>
<g>
	<path fill="#00ABEB" d="M4.4,52L0,20.9h4.8l2.5,20l3.3-20h3.8L17.8,41l2.5-20.1H25L20.6,52h-4.5l-3.5-20.8L9.1,52H4.4z"/>
	<path fill="#00ABEB" d="M29.8,52V20.9h13v4h-7.3v8.9h5.8v4h-5.8v10.3h7.4V52H29.8z"/>
	<path fill="#00ABEB" d="M47.6,52V20.9h7.6c1.4,0,2.7,0.1,3.8,0.4c1.1,0.3,2,0.7,2.8,1.3c0.8,0.6,1.5,1.4,1.9,2.5
		c0.4,1,0.6,2.3,0.6,3.8c0,3.8-1.5,6-4.6,6.4c1.8,0.4,3.2,1.2,4.1,2.4c0.9,1.3,1.4,3,1.4,5.3c0,3-0.7,5.2-2.2,6.7
		c-1.5,1.5-3.7,2.3-6.5,2.3H47.6z M53.2,33.6H55c1.7,0,2.8-0.4,3.4-1.1c0.6-0.7,0.9-1.9,0.9-3.6c0-0.9-0.1-1.6-0.3-2.1
		c-0.2-0.5-0.6-1-1-1.2c-0.5-0.3-1-0.5-1.6-0.5c-0.6-0.1-1.4-0.1-2.4-0.1h-0.8V33.6z M53.2,48h2.1c1.7,0,2.9-0.4,3.5-1.2
		c0.6-0.8,1-2.1,1-3.9c0-1.9-0.4-3.2-1.1-4.1c-0.7-0.8-2-1.3-3.7-1.3h-1.8V48z"/>
	<path fill="#00ABEB" d="M87.8,52.4c-2.1,0-3.7-0.7-5-2c-1.2-1.3-1.9-3-1.9-5.2c0-1.8,0.4-3.5,1.2-5.1c0.8-1.6,1.9-3,3.2-4.2
		c-0.2-0.4-0.5-1-1-1.9c-0.5-0.9-0.9-1.6-1.1-2.2c-0.3-0.5-0.5-1.2-0.7-2c-0.2-0.8-0.4-1.6-0.4-2.4c0-2,0.6-3.7,1.8-5
		c1.2-1.3,2.8-2,4.8-2c1.9,0,3.6,0.6,4.9,1.7c1.3,1.1,1.9,2.6,1.9,4.5c0,1-0.2,1.9-0.5,2.8s-0.8,1.8-1.3,2.7
		c-0.6,0.8-1.1,1.5-1.6,2.1c-0.5,0.6-1.1,1.2-1.8,1.9c-0.1,0.1-0.2,0.2-0.3,0.3l4,6.8c0.5-1.1,1-3.2,1.2-6.1h4.4
		c0,3.2-0.9,6.2-2.7,9.2c0.3,0.4,0.7,0.7,1.2,0.9c0.5,0.3,1,0.4,1.5,0.4v4.6c-0.3,0.1-0.5,0.1-0.8,0.1c-0.3,0-0.7-0.1-1-0.2
		c-0.4-0.1-0.6-0.2-0.9-0.3c-0.2-0.1-0.5-0.3-0.9-0.6c-0.4-0.3-0.6-0.5-0.7-0.6c-0.1-0.1-0.4-0.3-0.8-0.7c-0.4-0.4-0.6-0.6-0.6-0.6
		c-0.7,0.9-1.6,1.6-2.7,2.1C90.3,52.1,89.1,52.4,87.8,52.4z M87.8,48.5c1.3,0,2.5-0.6,3.4-1.9c-2.6-4.4-3.9-6.7-4-7
		c-0.5,0.8-0.9,1.6-1.2,2.6s-0.4,1.9-0.4,2.8c0,1,0.2,1.8,0.6,2.4C86.6,48.2,87.1,48.5,87.8,48.5z M88.4,33.7c0.6-0.9,1.2-2,1.7-3.4
		s0.8-2.6,0.8-3.7c0-0.6-0.2-1.1-0.6-1.5s-0.9-0.6-1.5-0.6c-0.6,0-1.1,0.3-1.5,0.8c-0.4,0.5-0.5,1.2-0.5,2c0,0.2,0,0.5,0,0.7
		c0,0.2,0.1,0.5,0.1,0.8c0,0.3,0.1,0.5,0.1,0.8s0.1,0.5,0.2,0.8c0.1,0.3,0.2,0.5,0.2,0.7c0,0.2,0.1,0.4,0.2,0.8
		c0.1,0.3,0.2,0.5,0.2,0.6c0,0.1,0.1,0.3,0.2,0.6C88.3,33.5,88.4,33.7,88.4,33.7z"/>
	<g>
		<path fill="#00ABEB" d="M116.4,52l0.5-31.1h5.8l4.5,21.8l4.6-21.8h5.7l0.5,31.1h-4.3l-0.4-21.4L128.9,52h-3.3l-4.5-21.5L120.7,52
			H116.4z"/>
		<path fill="#00ABEB" d="M152,52.4c-3.2,0-5.5-0.9-6.9-2.6c-1.4-1.7-2.1-4.3-2.1-7.6V30.7c0-1.6,0.2-3.1,0.5-4.3
			c0.3-1.2,0.8-2.3,1.5-3.1c0.7-0.9,1.6-1.6,2.8-2c1.2-0.4,2.6-0.7,4.2-0.7c3.2,0,5.5,0.9,6.9,2.6s2.1,4.2,2.1,7.5v11.5
			c0,1.6-0.2,3.1-0.5,4.3c-0.3,1.2-0.8,2.3-1.5,3.2s-1.6,1.6-2.8,2.1C155,52.1,153.6,52.4,152,52.4z M150.6,47.9
			c0.4,0.2,0.9,0.2,1.4,0.2s1-0.1,1.4-0.2c0.4-0.2,0.7-0.4,0.9-0.6c0.2-0.3,0.4-0.6,0.5-1c0.1-0.4,0.2-0.9,0.3-1.3
			c0-0.4,0.1-0.9,0.1-1.5V29.4c0-0.8,0-1.4-0.1-1.9c-0.1-0.5-0.2-1-0.4-1.4s-0.5-0.8-1-1c-0.4-0.2-1-0.3-1.7-0.3s-1.2,0.1-1.7,0.3
			c-0.4,0.2-0.8,0.5-1,1c-0.2,0.4-0.4,0.9-0.4,1.4s-0.1,1.1-0.1,1.9v14.1c0,0.6,0,1.1,0.1,1.5s0.1,0.9,0.3,1.3s0.3,0.8,0.5,1
			C149.9,47.6,150.2,47.8,150.6,47.9z"/>
		<path fill="#00ABEB" d="M166.1,52V20.9h7.6c1.4,0,2.7,0.1,3.8,0.4c1.1,0.3,2,0.7,2.8,1.3s1.5,1.4,1.9,2.5s0.6,2.3,0.6,3.8
			c0,3.8-1.5,6-4.6,6.4c1.8,0.4,3.2,1.2,4.1,2.4c0.9,1.3,1.4,3,1.4,5.3c0,3-0.7,5.2-2.2,6.7c-1.5,1.5-3.7,2.3-6.5,2.3H166.1z
			 M171.8,33.6h1.8c1.7,0,2.8-0.4,3.4-1.1s0.9-1.9,0.9-3.6c0-0.9-0.1-1.6-0.3-2.1c-0.2-0.5-0.6-1-1-1.2c-0.5-0.3-1-0.5-1.6-0.5
			s-1.4-0.1-2.4-0.1h-0.8V33.6z M171.8,48h2.1c1.7,0,2.9-0.4,3.5-1.2c0.7-0.8,1-2.1,1-3.9c0-1.9-0.4-3.2-1.1-4.1
			c-0.7-0.8-2-1.3-3.7-1.3h-1.8V48z"/>
		<path fill="#00ABEB" d="M188.7,52V20.9h5.6V52H188.7z"/>
		<path fill="#00ABEB" d="M199.8,52V20.9h5.7v27.2h7.4V52H199.8z"/>
		<path fill="#00ABEB" d="M217.4,52V20.9h13v4h-7.3v8.9h5.8v4h-5.8v10.3h7.4V52H217.4z"/>
	</g>
</g>
</svg>
