<?xml version="1.0" encoding="utf-8"?>
<!-- Generator: Adobe Illustrator 18.1.1, SVG Export Plug-In . SVG Version: 6.00 Build 0)  -->
<svg version="1.1" baseProfile="basic" id="Layer_1"
	 xmlns="http://www.w3.org/2000/svg" xmlns:xlink="http://www.w3.org/1999/xlink" x="0px" y="0px" viewBox="0 0 571.1 156.2"
	 xml:space="preserve">
<g>
	<g>
		<path fill="#FFFFFF" d="M12.6,0.4c5.9,0,8.6,3.6,8.6,9.4v19c0,5.8-2.7,9.3-8.6,9.3H3.7V0.4H12.6z M12.5,34.3c3,0,4.5-1.9,4.5-5.3
			V9.5c0-3.5-1.5-5.3-4.5-5.3H8v30.1H12.5z"/>
		<path fill="#FFFFFF" d="M38,17.1v3.8h-9.2v13.4h11.3v3.8H24.5V0.4h15.5v3.8H28.7v12.9H38z"/>
		<path fill="#FFFFFF" d="M59.7,9.4v1h-4V9.2c0-3.4-1.3-5.4-4.3-5.4c-3,0-4.3,2-4.3,5.3c0,8.5,12.7,9.3,12.7,19.9
			c0,5.7-2.8,9.4-8.5,9.4s-8.5-3.7-8.5-9.4v-2.2h3.9v2.4c0,3.4,1.4,5.4,4.4,5.4c3,0,4.4-2,4.4-5.4c0-8.4-12.6-9.2-12.6-19.9
			c0-5.8,2.7-9.4,8.4-9.4C57,0,59.7,3.7,59.7,9.4z"/>
		<path fill="#FFFFFF" d="M76.3,17.1v3.8h-9.2v13.4h11.3v3.8H62.9V0.4h15.5v3.8H67.1v12.9H76.3z"/>
		<path fill="#FFFFFF" d="M85.4,38.1h-3.8V0.4H87l8.7,27.3V0.4h3.7v37.8h-4.4L85.4,7.6V38.1z"/>
		<path fill="#FFFFFF" d="M106.6,0.4l6.1,32.9l6.1-32.9h3.9l-7.1,37.8h-6.2l-7.1-37.8H106.6z"/>
		<path fill="#FFFFFF" d="M124.9,9.5c0-5.8,2.9-9.5,8.6-9.5c5.8,0,8.7,3.7,8.7,9.5V29c0,5.7-2.9,9.5-8.7,9.5c-5.8,0-8.6-3.8-8.6-9.5
			V9.5z M129.1,29.2c0,3.5,1.5,5.4,4.5,5.4c3.1,0,4.5-2,4.5-5.4v-20c0-3.4-1.4-5.4-4.5-5.4c-3,0-4.5,2-4.5,5.4V29.2z"/>
		<path fill="#FFFFFF" d="M145.7,38.1V0.4h4.2v33.9h10.8v3.8H145.7z"/>
		<path fill="#FFFFFF" d="M163.9,0.4l6.1,32.9l6.1-32.9h3.9L173,38.1h-6.2l-7.1-37.8H163.9z"/>
		<path fill="#FFFFFF" d="M196.5,17.1v3.8h-9.2v13.4h11.3v3.8H183V0.4h15.5v3.8h-11.3v12.9H196.5z"/>
		<path fill="#FFFFFF" d="M210.7,0.4c5.9,0,8.6,3.6,8.6,9.4v19c0,5.8-2.7,9.3-8.6,9.3h-8.8V0.4H210.7z M210.6,34.3
			c3,0,4.5-1.9,4.5-5.3V9.5c0-3.5-1.5-5.3-4.5-5.3H206v30.1H210.6z"/>
		<path fill="#FFFFFF" d="M222.4,9.5c0-5.8,2.9-9.5,8.6-9.5c5.8,0,8.7,3.7,8.7,9.5V29c0,5.7-2.9,9.5-8.7,9.5c-5.8,0-8.6-3.8-8.6-9.5
			V9.5z M226.5,29.2c0,3.5,1.5,5.4,4.5,5.4c3.1,0,4.5-2,4.5-5.4v-20c0-3.4-1.4-5.4-4.5-5.4c-3,0-4.5,2-4.5,5.4V29.2z"/>
		<path fill="#FFFFFF" d="M251.5,0.4c5.9,0,8.4,3,8.4,8.6v3.1c0,4.2-1.5,6.7-4.7,7.8c3.5,1,4.7,3.8,4.7,7.9v5.9
			c0,1.7,0.1,3.2,0.8,4.5h-4.3c-0.5-1.1-0.7-2-0.7-4.6v-5.9c0-4.3-2-5.6-5.5-5.6h-3v16.1h-4.2V0.4H251.5z M250.4,18.2
			c3.3,0,5.3-1.1,5.3-5.2V9.4c0-3.4-1.2-5.2-4.4-5.2h-4.1v14H250.4z"/>
		<path fill="#FFFFFF" d="M287.2,38.1h-4l-6.3-30v30.1h-3.7V0.4h5.9l6.2,30.2l6-30.2h5.9v37.8h-4V7.8L287.2,38.1z"/>
		<path fill="#FFFFFF" d="M304.9,29.2c0,3.4,1.3,5.4,4.4,5.4c3,0,4.4-2,4.4-5.4V0.4h3.9V29c0,5.7-2.6,9.5-8.5,9.5
			c-5.8,0-8.4-3.8-8.4-9.5V0.4h4.2V29.2z"/>
		<path fill="#FFFFFF" d="M321.1,38.1V0.4h4.2v33.9h10.8v3.8H321.1z"/>
		<path fill="#FFFFFF" d="M341.5,38.1V4.2h-7V0.4h18.1v3.8h-7v33.9H341.5z"/>
		<path fill="#FFFFFF" d="M359.7,0.4v37.8h-4.2V0.4H359.7z"/>
		<path fill="#FFFFFF" d="M371.5,0.4c5.9,0,8.5,3.5,8.5,9.2v4.5c0,6-2.8,9.1-8.8,9.1h-3.7v14.9h-4.2V0.4H371.5z M371.2,19.5
			c3.1,0,4.6-1.5,4.6-5.1v-5c0-3.5-1.2-5.2-4.3-5.2h-4v15.3H371.2z"/>
		<path fill="#FFFFFF" d="M383.1,38.1V0.4h4.2v33.9H398v3.8H383.1z"/>
		<path fill="#FFFFFF" d="M405.8,30.5l-1.5,7.6h-3.9l7.2-37.8h6.1l7.2,37.8h-4.2l-1.5-7.6H405.8z M406.4,26.9h8.4l-4.3-21.8
			L406.4,26.9z"/>
		<path fill="#FFFFFF" d="M426.8,38.1V4.2h-7V0.4H438v3.8h-7v33.9H426.8z"/>
		<path fill="#FFFFFF" d="M442.2,30.5l-1.5,7.6h-3.9l7.2-37.8h6.1l7.2,37.8h-4.2l-1.5-7.6H442.2z M442.7,26.9h8.4l-4.3-21.8
			L442.7,26.9z"/>
		<path fill="#FFFFFF" d="M473.3,18v3.8h-8.7v16.3h-4.2V0.4h15v3.8h-10.8V18H473.3z"/>
		<path fill="#FFFFFF" d="M477.8,9.5c0-5.8,2.9-9.5,8.6-9.5c5.8,0,8.7,3.7,8.7,9.5V29c0,5.7-2.9,9.5-8.7,9.5c-5.8,0-8.6-3.8-8.6-9.5
			V9.5z M482,29.2c0,3.5,1.5,5.4,4.5,5.4c3.1,0,4.5-2,4.5-5.4v-20c0-3.4-1.4-5.4-4.5-5.4c-3,0-4.5,2-4.5,5.4V29.2z"/>
		<path fill="#FFFFFF" d="M507,0.4c5.9,0,8.4,3,8.4,8.6v3.1c0,4.2-1.5,6.7-4.7,7.8c3.5,1,4.7,3.8,4.7,7.9v5.9c0,1.7,0.1,3.2,0.8,4.5
			h-4.3c-0.5-1.1-0.7-2-0.7-4.6v-5.9c0-4.3-2-5.6-5.5-5.6h-3v16.1h-4.2V0.4H507z M505.9,18.2c3.3,0,5.3-1.1,5.3-5.2V9.4
			c0-3.4-1.2-5.2-4.4-5.2h-4.1v14H505.9z"/>
		<path fill="#FFFFFF" d="M533.3,38.1h-4L523,8v30.1h-3.7V0.4h5.9l6.2,30.2l6-30.2h5.9v37.8h-4V7.8L533.3,38.1z"/>
		<path fill="#FFFFFF" d="M551.6,30.5l-1.5,7.6h-3.9l7.2-37.8h6.1l7.2,37.8h-4.2l-1.5-7.6H551.6z M552.1,26.9h8.4l-4.3-21.8
			L552.1,26.9z"/>
	</g>
	<g>
		<path fill="#C7491B" d="M36.6,104.4l-5.4,50.8H10.6L0,59.9h14.6l8,75.1l7.2-75.1h14.4l7.5,75.7l7.8-75.7h13.1l-10.6,95.3H42.1
			L36.6,104.4z"/>
		<path fill="#C7491B" d="M94.1,100h20.5v13.6H94.1v27.9H120v13.6H79.1V59.9H120v13.6H94.1V100z"/>
		<path fill="#C7491B" d="M172.1,81.8v3.4c0,9.8-3,16.1-9.7,19.2c8,3.1,11.2,10.3,11.2,20.4v7.8c0,14.7-7.8,22.6-22.7,22.6h-23.5
			V59.9h22.6C165.4,59.9,172.1,67.1,172.1,81.8z M142.3,73.5v25.2h5.9c5.6,0,9-2.4,9-10.1v-5.3c0-6.8-2.3-9.8-7.6-9.8H142.3z
			 M142.3,112.3v29.3h8.6c5,0,7.8-2.3,7.8-9.4v-8.3c0-8.8-2.9-11.6-9.7-11.6H142.3z"/>
		<path fill="#C7491B" d="M215.5,104.8c-7.1-3-10.3-9.4-10.3-19.6v-1.8c0-15.2,7.3-23.5,22.3-23.5h17.1v13.6h-16.9
			c-4.8,0-7.6,2.4-7.6,9.3v5.9c0,7.6,3.4,10.1,9,10.1h6.5V88h15v10.6h3.9v13.6h-3.9v31.3c0,4.6,0.1,8,1.6,11.6H237
			c-0.7-1.9-1.1-3.3-1.4-7.5c-2.6,5.6-7.2,8.6-13.9,8.6c-11,0-16.6-7.8-16.6-21.8v-9.7C205.1,115.1,208.1,108,215.5,104.8z
			 M227.9,142.6c4.5,0,7.5-2.3,7.8-8.3v-22h-5.7c-6.8,0-9.8,3.3-9.8,12.1v8.8C220.1,140,223.1,142.6,227.9,142.6z"/>
		<path fill="#C7491B" d="M315.5,127.5l10.2-67.6h20.8v95.3h-14.2V86.8L322,155.1h-14.2l-11.2-67.4v67.4h-13.1V59.9h20.8
			L315.5,127.5z"/>
		<path fill="#C7491B" d="M354.4,82.7c0-15.2,8-24,22.7-24c14.7,0,22.7,8.7,22.7,24v49.5c0,15.2-8,24-22.7,24
			c-14.7,0-22.7-8.7-22.7-24V82.7z M369.4,133.2c0,6.8,3,9.4,7.8,9.4c4.8,0,7.8-2.6,7.8-9.4V81.8c0-6.8-3-9.4-7.8-9.4
			c-4.8,0-7.8,2.6-7.8,9.4V133.2z"/>
		<path fill="#C7491B" d="M452.4,81.8v3.4c0,9.8-3,16.1-9.7,19.2c8,3.1,11.2,10.3,11.2,20.4v7.8c0,14.7-7.8,22.6-22.7,22.6h-23.5
			V59.9h22.6C445.8,59.9,452.4,67.1,452.4,81.8z M422.6,73.5v25.2h5.9c5.6,0,9-2.4,9-10.1v-5.3c0-6.8-2.3-9.8-7.6-9.8H422.6z
			 M422.6,112.3v29.3h8.6c5,0,7.8-2.3,7.8-9.4v-8.3c0-8.8-2.9-11.6-9.7-11.6H422.6z"/>
		<path fill="#C7491B" d="M461.1,59.9h15v95.3h-15V59.9z"/>
		<path fill="#C7491B" d="M484.5,59.9h15v81.7h24.6v13.6h-39.6V59.9z"/>
		<path fill="#C7491B" d="M545.2,100h20.5v13.6h-20.5v27.9h25.9v13.6h-40.8V59.9h40.8v13.6h-25.9V100z"/>
	</g>
</g>
</svg>
